<?xml version="1.0" encoding="UTF-8"?>
<!DOCTYPE svg PUBLIC "-//W3C//DTD SVG 1.1//EN" "http://www.w3.org/Graphics/SVG/1.1/DTD/svg11.dtd">
<svg xmlns="http://www.w3.org/2000/svg" version="1.1" width="800px" height="114px" style="shape-rendering:geometricPrecision; text-rendering:geometricPrecision; image-rendering:optimizeQuality; fill-rule:evenodd; clip-rule:evenodd" xmlns:xlink="http://www.w3.org/1999/xlink">
<g><path style="opacity:0.993" fill="#d067a4" d="M 749.5,18.5 C 749.973,19.9063 750.973,20.573 752.5,20.5C 754.167,21.5 755.5,22.8333 756.5,24.5C 756.427,26.0269 757.094,27.0269 758.5,27.5C 758.427,29.0269 759.094,30.0269 760.5,30.5C 765.517,36.75 764.017,40.4167 756,41.5C 753.516,41.5033 751.349,40.8366 749.5,39.5C 748.5,37.8333 747.167,36.5 745.5,35.5C 745.5,34.1667 744.833,33.5 743.5,33.5C 740.15,33.335 736.817,33.5017 733.5,34C 730.019,37.3969 729.686,41.0636 732.5,45C 738.937,47.1864 744.937,50.0197 750.5,53.5C 750.973,54.9063 751.973,55.573 753.5,55.5C 754.5,55.8333 755.167,56.5 755.5,57.5C 756.5,59.1667 757.833,60.5 759.5,61.5C 759.427,63.0269 760.094,64.0269 761.5,64.5C 761.427,66.0269 762.094,67.0269 763.5,67.5C 766.593,75.8037 764.926,83.137 758.5,89.5C 757.167,90.1667 756.167,91.1667 755.5,92.5C 749.127,98.7858 741.461,100.952 732.5,99C 730.273,98.059 728.273,96.8923 726.5,95.5C 725.738,93.7376 724.404,92.7376 722.5,92.5C 721.5,92.1667 720.833,91.5 720.5,90.5C 720.573,88.9731 719.906,87.9731 718.5,87.5C 716.023,84.5621 714.023,81.2288 712.5,77.5C 713.907,74.0045 716.574,72.6711 720.5,73.5C 723.527,73.2865 726.193,73.9532 728.5,75.5C 729.167,76.8333 730.167,77.8333 731.5,78.5C 735.052,81.8397 739.052,82.3397 743.5,80C 746.12,76.5019 746.12,73.0019 743.5,69.5C 743.027,68.0937 742.027,67.427 740.5,67.5C 736.463,66.9347 732.797,65.6013 729.5,63.5C 729.027,62.0937 728.027,61.427 726.5,61.5C 726.027,60.0937 725.027,59.427 723.5,59.5C 723.027,58.0937 722.027,57.427 720.5,57.5C 718.833,56.5 717.5,55.1667 716.5,53.5C 716.573,51.9731 715.906,50.9731 714.5,50.5C 709.254,43.1975 709.254,35.8642 714.5,28.5C 715.906,28.0269 716.573,27.0269 716.5,25.5C 717.167,24.1667 718.167,23.1667 719.5,22.5C 721.749,21.9202 723.415,20.5869 724.5,18.5C 732.862,13.2281 741.195,13.2281 749.5,18.5 Z"/></g>
<g><path style="opacity:0.553" fill="#cc589b" d="M 291.5,18.5 C 276.163,18.3334 260.83,18.5001 245.5,19C 244.627,20.045 243.627,20.8783 242.5,21.5C 242.511,19.9826 243.177,18.8159 244.5,18C 260.339,17.172 276.005,17.3387 291.5,18.5 Z"/></g>
<g><path style="opacity:0.583" fill="#cc599b" d="M 599.5,18.5 C 595.486,18.3345 591.486,18.5012 587.5,19C 586.627,20.045 585.627,20.8783 584.5,21.5C 585.627,20.8783 586.627,20.045 587.5,19C 591.486,18.5012 595.486,18.3345 599.5,18.5 Z"/></g>
<g><path style="opacity:0.993" fill="#d067a4" d="M 51.5,58.5 C 50.281,65.2165 50.6144,71.8832 52.5,78.5C 53.4734,78.9867 54.4734,79.4867 55.5,80C 65.1667,80.3333 74.8333,80.6667 84.5,81C 85.4158,81.2784 86.0825,81.7784 86.5,82.5C 87.8333,86.8333 87.8333,91.1667 86.5,95.5C 86.0825,96.2216 85.4158,96.7216 84.5,97C 67.6616,97.8283 50.9949,97.6616 34.5,96.5C 33.8783,95.3734 33.045,94.3734 32,93.5C 31.3333,69.5 31.3333,45.5 32,21.5C 33.045,20.6266 33.8783,19.6266 34.5,18.5C 38.6463,17.353 42.9796,17.1864 47.5,18C 49.3333,18.5 50.5,19.6667 51,21.5C 51.4999,33.8288 51.6665,46.1622 51.5,58.5 Z"/></g>
<g><path style="opacity:0.995" fill="#d067a3" d="M 180.5,19.5 C 180.833,20.5 181.5,21.1667 182.5,21.5C 182.992,23.8185 183.992,25.8185 185.5,27.5C 189.352,35.2134 192.685,43.2134 195.5,51.5C 196.978,51.762 198.311,51.4287 199.5,50.5C 203.276,41.2921 207.276,32.2921 211.5,23.5C 213.5,22.1667 215.167,20.5 216.5,18.5C 221.167,17.1667 225.833,17.1667 230.5,18.5C 230.557,19.609 230.89,20.609 231.5,21.5C 223.96,41.5704 215.627,61.2371 206.5,80.5C 205.069,81.7804 204.402,83.4471 204.5,85.5C 203.397,89.497 201.731,93.1637 199.5,96.5C 198.609,97.1098 197.609,97.4431 196.5,97.5C 192.603,90.4967 189.269,83.1634 186.5,75.5C 186.598,73.4471 185.931,71.7804 184.5,70.5C 176.839,54.3729 169.839,37.8729 163.5,21C 163.585,19.8926 163.919,18.8926 164.5,18C 169.167,17.3333 173.833,17.3333 178.5,18C 179.416,18.2784 180.082,18.7784 180.5,19.5 Z"/></g>
<g><path style="opacity:0.99" fill="#d067a4" d="M 291.5,18.5 C 291.427,20.0269 292.094,21.0269 293.5,21.5C 294.158,22.7933 294.492,24.2933 294.5,26C 294.664,28.5437 293.997,30.7103 292.5,32.5C 290.847,32.6596 289.514,33.3263 288.5,34.5C 280.343,35.3294 272.01,35.8294 263.5,36C 261.66,38.8263 260.994,41.9929 261.5,45.5C 261.5,47.5 262.5,48.5 264.5,48.5C 271.841,48.3337 279.174,48.5003 286.5,49C 287.737,49.2321 288.737,49.7321 289.5,50.5C 290.36,54.4338 290.693,58.4338 290.5,62.5C 289.128,63.5116 287.795,64.5116 286.5,65.5C 278.826,65.3336 271.159,65.5003 263.5,66C 262.944,66.3826 262.611,66.8826 262.5,67.5C 260.909,71.524 261.243,75.3573 263.5,79C 273.344,79.5533 283.011,80.3866 292.5,81.5C 292.833,82.5 293.5,83.1667 294.5,83.5C 295.833,86.8333 295.833,90.1667 294.5,93.5C 293.167,94.1667 292.167,95.1667 291.5,96.5C 276.672,97.6611 261.672,97.8277 246.5,97C 244.714,96.2155 243.214,95.0488 242,93.5C 241.17,69.3298 241.337,45.3298 242.5,21.5C 243.627,20.8783 244.627,20.045 245.5,19C 260.83,18.5001 276.163,18.3334 291.5,18.5 Z"/></g>
<g><path style="opacity:0.494" fill="#cc599b" d="M 308.5,18.5 C 308.167,19.5 307.5,20.1667 306.5,20.5C 306.5,19.1667 307.167,18.5 308.5,18.5 Z"/></g>
<g><path style="opacity:0.988" fill="#d067a4" d="M 324.5,50.5 C 324.334,59.8393 324.5,69.1726 325,78.5C 325.5,79 326,79.5 326.5,80C 331.489,80.4993 336.489,80.6659 341.5,80.5C 346.695,80.1795 351.695,80.5128 356.5,81.5C 356.427,83.0269 357.094,84.0269 358.5,84.5C 359.634,86.9664 359.801,89.633 359,92.5C 358.167,94.6667 356.667,96.1667 354.5,97C 339.328,97.8277 324.328,97.6611 309.5,96.5C 307.71,94.7278 306.377,92.7278 305.5,90.5C 304.345,67.906 304.178,45.2393 305,22.5C 305.278,21.5842 305.778,20.9175 306.5,20.5C 307.5,20.1667 308.167,19.5 308.5,18.5C 312.646,17.353 316.98,17.1864 321.5,18C 322.333,18.8333 323.167,19.6667 324,20.5C 324.5,30.4944 324.666,40.4944 324.5,50.5 Z"/></g>
<g><path style="opacity:0.992" fill="#d067a4" d="M 369.5,20.5 C 369.738,22.4044 370.738,23.7377 372.5,24.5C 372.738,26.4044 373.738,27.7377 375.5,28.5C 375.427,30.0269 376.094,31.0269 377.5,31.5C 377.427,33.0269 378.094,34.0269 379.5,34.5C 379.427,36.0269 380.094,37.0269 381.5,37.5C 382.538,39.5195 383.872,39.8528 385.5,38.5C 387.179,38.7148 388.179,38.0481 388.5,36.5C 389.906,36.0269 390.573,35.0269 390.5,33.5C 391.906,33.0269 392.573,32.0269 392.5,30.5C 393.906,30.0269 394.573,29.0269 394.5,27.5C 396.262,26.7377 397.262,25.4044 397.5,23.5C 399.167,22.5 400.5,21.1667 401.5,19.5C 401.918,18.7784 402.584,18.2784 403.5,18C 408.684,17.1837 413.684,17.3503 418.5,18.5C 418.5,19.8333 418.5,21.1667 418.5,22.5C 417.241,26.0246 415.241,29.0246 412.5,31.5C 411.094,31.9731 410.427,32.9731 410.5,34.5C 409.094,34.9731 408.427,35.9731 408.5,37.5C 407.094,37.9731 406.427,38.9731 406.5,40.5C 405.094,40.9731 404.427,41.9731 404.5,43.5C 401.495,48.0177 398.662,52.6844 396,57.5C 394.942,69.627 394.109,81.627 393.5,93.5C 392.167,94.1667 391.167,95.1667 390.5,96.5C 386.102,96.7059 381.768,96.3726 377.5,95.5C 376.21,94.9423 375.377,93.9423 375,92.5C 374.5,82.5056 374.334,72.5056 374.5,62.5C 375.075,58.8453 374.075,55.8453 371.5,53.5C 369.808,51.7952 368.475,49.7952 367.5,47.5C 367.573,45.9731 366.906,44.9731 365.5,44.5C 365.573,42.9731 364.906,41.9731 363.5,41.5C 363.573,39.9731 362.906,38.9731 361.5,38.5C 358.687,35.5541 356.354,32.2208 354.5,28.5C 354.573,26.9731 353.906,25.9731 352.5,25.5C 352.573,23.9731 351.906,22.9731 350.5,22.5C 349.199,21.1155 349.199,19.6155 350.5,18C 355.5,17.3333 360.5,17.3333 365.5,18C 367.066,18.6082 368.4,19.4415 369.5,20.5 Z"/></g>
<g><path style="opacity:0.464" fill="#cc599b" d="M 457.5,18.5 C 457.167,19.5 456.5,20.1667 455.5,20.5C 455.5,19.1667 456.167,18.5 457.5,18.5 Z"/></g>
<g><path style="opacity:0.992" fill="#d067a4" d="M 507.5,19.5 C 508.344,23.0991 508.677,26.7657 508.5,30.5C 508.672,31.4916 508.338,32.1583 507.5,32.5C 505.847,32.6596 504.514,33.3263 503.5,34.5C 500.103,35.1982 496.603,35.8648 493,36.5C 492.781,41.5824 492.281,46.5824 491.5,51.5C 490.504,65.3234 490.171,79.3234 490.5,93.5C 489.71,94.7942 488.71,95.9609 487.5,97C 483.642,97.8099 479.976,97.6433 476.5,96.5C 476.027,95.0937 475.027,94.427 473.5,94.5C 472.778,94.0825 472.278,93.4158 472,92.5C 471.667,74.1667 471.333,55.8333 471,37.5C 470.5,37 470,36.5 469.5,36C 465.204,35.9244 461.204,35.0911 457.5,33.5C 456.488,32.1283 455.488,30.795 454.5,29.5C 453.848,28.5514 453.514,27.3847 453.5,26C 453.393,23.7794 454.06,21.9461 455.5,20.5C 456.5,20.1667 457.167,19.5 457.5,18.5C 473.661,17.3385 489.995,17.1718 506.5,18C 507.056,18.3826 507.389,18.8826 507.5,19.5 Z"/></g>
<g><path style="opacity:0.995" fill="#d067a4" d="M 538.5,18.5 C 538.427,20.0269 539.094,21.0269 540.5,21.5C 542.674,24.5154 544.341,27.8487 545.5,31.5C 545.402,33.5529 546.069,35.2196 547.5,36.5C 553.614,47.0636 558.948,58.0636 563.5,69.5C 563.402,71.5529 564.069,73.2196 565.5,74.5C 568.663,79.4935 571.33,84.8269 573.5,90.5C 573.376,91.1067 573.043,91.44 572.5,91.5C 571.5,91.8333 570.833,92.5 570.5,93.5C 567.024,94.6433 563.358,94.8099 559.5,94C 556.894,93.2082 554.894,91.7082 553.5,89.5C 553.5,88.1667 552.833,87.5 551.5,87.5C 541.376,85.8683 531.376,86.2016 521.5,88.5C 519.833,89.5 518.5,90.8333 517.5,92.5C 513.215,93.2949 508.881,93.6282 504.5,93.5C 502.516,93.516 501.516,92.516 501.5,90.5C 503.393,84.385 506.059,78.7183 509.5,73.5C 510.931,72.2196 511.598,70.5529 511.5,68.5C 512.659,64.8487 514.326,61.5154 516.5,58.5C 517.931,57.2196 518.598,55.5529 518.5,53.5C 520.326,48.5156 522.659,43.8489 525.5,39.5C 526.931,38.2196 527.598,36.5529 527.5,34.5C 529.715,29.0679 532.215,23.7345 535,18.5C 536.292,17.2089 537.458,17.2089 538.5,18.5 Z M 539.5,58.5 C 539.328,59.4916 539.662,60.1583 540.5,60.5C 540.402,62.5529 541.069,64.2196 542.5,65.5C 543.323,67.4546 543.49,69.4546 543,71.5C 540.564,72.3547 538.064,73.0213 535.5,73.5C 533.972,72.6908 532.306,72.0241 530.5,71.5C 531.87,66.4215 533.536,61.4215 535.5,56.5C 536.117,56.3893 536.617,56.056 537,55.5C 537.852,56.5707 538.685,57.5707 539.5,58.5 Z"/></g>
<g><path style="opacity:0.986" fill="#d067a3" d="M 599.5,18.5 C 601.411,18.5743 602.578,19.5743 603,21.5C 603.025,40.5899 603.691,59.5899 605,78.5C 614.91,79.7404 624.743,80.7404 634.5,81.5C 634.833,82.5 635.5,83.1667 636.5,83.5C 637.833,86.8333 637.833,90.1667 636.5,93.5C 635.167,94.1667 634.167,95.1667 633.5,96.5C 618.5,97.8333 603.5,97.8333 588.5,96.5C 588.027,95.0937 587.027,94.427 585.5,94.5C 584.778,94.0825 584.278,93.4158 584,92.5C 583.17,68.6631 583.337,44.9964 584.5,21.5C 585.627,20.8783 586.627,20.045 587.5,19C 591.486,18.5012 595.486,18.3345 599.5,18.5 Z"/></g>
<g><path style="opacity:0.396" fill="#cc589b" d="M 650.5,18.5 C 649.308,20.1131 648.308,21.7798 647.5,23.5C 646.916,20.715 647.916,19.0483 650.5,18.5 Z"/></g>
<g><path style="opacity:0.991" fill="#d067a4" d="M 664.5,19.5 C 665.098,26.6319 665.765,33.6319 666.5,40.5C 667.747,43.7995 667.747,47.1328 666.5,50.5C 667.86,53.0155 668.86,52.6822 669.5,49.5C 670.906,49.0269 671.573,48.0269 671.5,46.5C 672.906,46.0269 673.573,45.0269 673.5,43.5C 673.328,42.5084 673.662,41.8417 674.5,41.5C 675.906,41.0269 676.573,40.0269 676.5,38.5C 677.906,38.0269 678.573,37.0269 678.5,35.5C 679.906,35.0269 680.573,34.0269 680.5,32.5C 681.906,32.0269 682.573,31.0269 682.5,29.5C 683.906,29.0269 684.573,28.0269 684.5,26.5C 685.906,26.0269 686.573,25.0269 686.5,23.5C 688.5,22.1667 690.167,20.5 691.5,18.5C 696.65,17.3493 701.984,17.1826 707.5,18C 708.739,20.7016 708.073,22.8683 705.5,24.5C 704.094,24.9731 703.427,25.9731 703.5,27.5C 702.094,27.9731 701.427,28.9731 701.5,30.5C 701.5,31.1667 701.167,31.5 700.5,31.5C 699.094,31.9731 698.427,32.9731 698.5,34.5C 698.5,35.1667 698.167,35.5 697.5,35.5C 696.094,35.9731 695.427,36.9731 695.5,38.5C 694.974,40.2303 693.974,41.5637 692.5,42.5C 691.094,42.9731 690.427,43.9731 690.5,45.5C 689.094,45.9731 688.427,46.9731 688.5,48.5C 687.094,48.9731 686.427,49.9731 686.5,51.5C 686.242,55.3669 686.908,59.0336 688.5,62.5C 688.427,64.0269 689.094,65.0269 690.5,65.5C 690.427,67.0269 691.094,68.0269 692.5,68.5C 692.738,70.4044 693.738,71.7377 695.5,72.5C 695.427,74.0269 696.094,75.0269 697.5,75.5C 697.427,77.0269 698.094,78.0269 699.5,78.5C 699.427,80.0269 700.094,81.0269 701.5,81.5C 701.738,83.4044 702.738,84.7377 704.5,85.5C 704.427,87.0269 705.094,88.0269 706.5,88.5C 706.427,90.0269 707.094,91.0269 708.5,91.5C 711.432,93.8276 711.098,95.661 707.5,97C 703.5,97.6667 699.5,97.6667 695.5,97C 693.934,96.3918 692.6,95.5585 691.5,94.5C 690.833,93.1667 689.833,92.1667 688.5,91.5C 688.573,89.9731 687.906,88.9731 686.5,88.5C 686.573,86.9731 685.906,85.9731 684.5,85.5C 684.573,83.9731 683.906,82.9731 682.5,82.5C 681.11,81.1007 680.11,79.4341 679.5,77.5C 679.573,75.9731 678.906,74.9731 677.5,74.5C 675.336,72.178 673.669,69.5113 672.5,66.5C 672.573,64.9731 671.906,63.9731 670.5,63.5C 669.662,63.1583 669.328,62.4916 669.5,61.5C 668.947,59.4482 667.947,59.1148 666.5,60.5C 667.378,71.6408 667.045,82.6408 665.5,93.5C 664.167,94.1667 663.167,95.1667 662.5,96.5C 658.833,97.8333 655.167,97.8333 651.5,96.5C 651.027,95.0937 650.027,94.427 648.5,94.5C 647.71,93.3915 647.21,92.0581 647,90.5C 646.17,67.9962 646.337,45.6629 647.5,23.5C 648.308,21.7798 649.308,20.1131 650.5,18.5C 654.646,17.353 658.98,17.1864 663.5,18C 664.056,18.3826 664.389,18.8826 664.5,19.5 Z"/></g>
<g><path style="opacity:0.385" fill="#cc589b" d="M 691.5,18.5 C 690.167,20.5 688.5,22.1667 686.5,23.5C 687.167,20.8333 688.833,19.1667 691.5,18.5 Z"/></g>
<g><path style="opacity:0.314" fill="#cc589b" d="M 749.5,18.5 C 751.027,18.427 752.027,19.0937 752.5,20.5C 750.973,20.573 749.973,19.9063 749.5,18.5 Z"/></g>
<g><path style="opacity:0.102" fill="#cc579a" d="M 180.5,19.5 C 181.833,19.5 182.5,20.1667 182.5,21.5C 181.5,21.1667 180.833,20.5 180.5,19.5 Z"/></g>
<g><path style="opacity:0.753" fill="#cd5c9d" d="M 216.5,18.5 C 215.167,20.5 213.5,22.1667 211.5,23.5C 212.167,20.8333 213.833,19.1667 216.5,18.5 Z"/></g>
<g><path style="opacity:0.102" fill="#cd5a9c" d="M 230.5,18.5 C 232.382,19.221 232.715,20.221 231.5,21.5C 230.89,20.609 230.557,19.609 230.5,18.5 Z"/></g>
<g><path style="opacity:0.375" fill="#cd5a9c" d="M 291.5,18.5 C 292.906,18.9731 293.573,19.9731 293.5,21.5C 292.094,21.0269 291.427,20.0269 291.5,18.5 Z"/></g>
<g><path style="opacity:0.389" fill="#cc589b" d="M 401.5,19.5 C 400.5,21.1667 399.167,22.5 397.5,23.5C 397.833,21.1667 399.167,19.8333 401.5,19.5 Z"/></g>
<g><path style="opacity:0.993" fill="#d067a4" d="M 146.5,24.5 C 146.973,25.9063 147.973,26.573 149.5,26.5C 151.404,26.7376 152.738,27.7376 153.5,29.5C 154.833,31.5 156.5,33.1667 158.5,34.5C 159.167,34.5 159.5,34.8333 159.5,35.5C 159.427,37.0269 160.094,38.0269 161.5,38.5C 167.193,47.6343 169.026,57.6343 167,68.5C 166.295,71.4757 165.129,74.1423 163.5,76.5C 162.326,77.5137 161.66,78.847 161.5,80.5C 161.573,82.0269 160.906,83.0269 159.5,83.5C 157.738,84.2623 156.738,85.5956 156.5,87.5C 154.251,88.0798 152.585,89.4131 151.5,91.5C 149.973,91.427 148.973,92.0937 148.5,93.5C 138.27,99.5867 127.27,101.087 115.5,98C 112.16,96.9967 109.16,95.4967 106.5,93.5C 105.738,91.7376 104.404,90.7376 102.5,90.5C 101.833,90.5 101.5,90.1667 101.5,89.5C 100.5,87.8333 99.1667,86.5 97.5,85.5C 88.7601,75.891 85.5935,64.5577 88,51.5C 88.6441,47.3812 90.1441,43.7145 92.5,40.5C 93.9063,40.0269 94.573,39.0269 94.5,37.5C 96.0941,34.2358 98.4275,31.5691 101.5,29.5C 103.404,29.2624 104.738,28.2624 105.5,26.5C 107.027,26.573 108.027,25.9063 108.5,24.5C 121.167,17.8333 133.833,17.8333 146.5,24.5 Z M 138.5,39.5 C 138.973,40.9063 139.973,41.573 141.5,41.5C 142.167,42.8333 143.167,43.8333 144.5,44.5C 144.427,46.0269 145.094,47.0269 146.5,47.5C 149.394,56.306 149.061,64.9727 145.5,73.5C 143.5,74.8333 141.833,76.5 140.5,78.5C 129.55,83.5362 119.55,82.2028 110.5,74.5C 110.573,72.9731 109.906,71.9731 108.5,71.5C 104.579,60.4444 106.246,50.4444 113.5,41.5C 115.027,41.573 116.027,40.9063 116.5,39.5C 123.842,36.9261 131.176,36.9261 138.5,39.5 Z"/></g>
<g><path style="opacity:0.42" fill="#cd5a9c" d="M 418.5,18.5 C 420.781,19.6344 420.781,20.9678 418.5,22.5C 418.5,21.1667 418.5,19.8333 418.5,18.5 Z"/></g>
<g><path style="opacity:0.149" fill="#cc599b" d="M 507.5,19.5 C 508.117,19.6107 508.617,19.944 509,20.5C 509.808,24.0267 509.641,27.3601 508.5,30.5C 508.677,26.7657 508.344,23.0991 507.5,19.5 Z"/></g>
<g><path style="opacity:0.443" fill="#cd599b" d="M 538.5,18.5 C 539.906,18.9731 540.573,19.9731 540.5,21.5C 539.094,21.0269 538.427,20.0269 538.5,18.5 Z"/></g>
<g><path style="opacity:0.397" fill="#cd5a9c" d="M 369.5,20.5 C 371.262,21.2623 372.262,22.5956 372.5,24.5C 370.738,23.7377 369.738,22.4044 369.5,20.5 Z"/></g>
<g><path style="opacity:0.753" fill="#cd5c9d" d="M 724.5,18.5 C 723.415,20.5869 721.749,21.9202 719.5,22.5C 720.585,20.4131 722.251,19.0798 724.5,18.5 Z"/></g>
<g><path style="opacity:0.553" fill="#cc589b" d="M 34.5,18.5 C 33.8783,19.6266 33.045,20.6266 32,21.5C 31.3333,45.5 31.3333,69.5 32,93.5C 33.045,94.3734 33.8783,95.3734 34.5,96.5C 32.9826,96.4894 31.8159,95.8228 31,94.5C 30.3333,69.8333 30.3333,45.1667 31,20.5C 31.8159,19.1772 32.9826,18.5106 34.5,18.5 Z"/></g>
<g><path style="opacity:0.443" fill="#cd599b" d="M 182.5,21.5 C 184.539,22.911 185.539,24.911 185.5,27.5C 183.992,25.8185 182.992,23.8185 182.5,21.5 Z"/></g>
<g><path style="opacity:0.314" fill="#cc589b" d="M 350.5,22.5 C 351.906,22.9731 352.573,23.9731 352.5,25.5C 351.094,25.0269 350.427,24.0269 350.5,22.5 Z"/></g>
<g><path style="opacity:0.622" fill="#cc599b" d="M 664.5,19.5 C 665.117,19.6107 665.617,19.944 666,20.5C 666.5,27.1583 666.666,33.825 666.5,40.5C 665.765,33.6319 665.098,26.6319 664.5,19.5 Z"/></g>
<g><path style="opacity:0.373" fill="#cc579a" d="M 108.5,24.5 C 108.027,25.9063 107.027,26.573 105.5,26.5C 105.973,25.0937 106.973,24.427 108.5,24.5 Z"/></g>
<g><path style="opacity:0.373" fill="#cc579a" d="M 146.5,24.5 C 148.027,24.427 149.027,25.0937 149.5,26.5C 147.973,26.573 146.973,25.9063 146.5,24.5 Z"/></g>
<g><path style="opacity:0.314" fill="#cd5a9c" d="M 397.5,23.5 C 397.262,25.4044 396.262,26.7377 394.5,27.5C 394.738,25.5956 395.738,24.2623 397.5,23.5 Z"/></g>
<g><path style="opacity:0.753" fill="#cd5c9e" d="M 686.5,23.5 C 686.573,25.0269 685.906,26.0269 684.5,26.5C 684.427,24.9731 685.094,23.9731 686.5,23.5 Z"/></g>
<g><path style="opacity:0.314" fill="#cc589b" d="M 756.5,24.5 C 757.906,24.9731 758.573,25.9731 758.5,27.5C 757.094,27.0269 756.427,26.0269 756.5,24.5 Z"/></g>
<g><path style="opacity:0.314" fill="#cd5a9c" d="M 372.5,24.5 C 374.262,25.2623 375.262,26.5956 375.5,28.5C 373.738,27.7377 372.738,26.4044 372.5,24.5 Z"/></g>
<g><path style="opacity:0.314" fill="#cc589b" d="M 705.5,24.5 C 705.573,26.0269 704.906,27.0269 703.5,27.5C 703.427,25.9731 704.094,24.9731 705.5,24.5 Z"/></g>
<g><path style="opacity:0.314" fill="#cc589b" d="M 716.5,25.5 C 716.573,27.0269 715.906,28.0269 714.5,28.5C 714.427,26.9731 715.094,25.9731 716.5,25.5 Z"/></g>
<g><path style="opacity:0.374" fill="#cd5a9c" d="M 105.5,26.5 C 104.738,28.2624 103.404,29.2624 101.5,29.5C 102.262,27.7376 103.596,26.7376 105.5,26.5 Z"/></g>
<g><path style="opacity:0.314" fill="#cc589b" d="M 352.5,25.5 C 353.906,25.9731 354.573,26.9731 354.5,28.5C 353.094,28.0269 352.427,27.0269 352.5,25.5 Z"/></g>
<g><path style="opacity:0.314" fill="#cc589b" d="M 394.5,27.5 C 394.573,29.0269 393.906,30.0269 392.5,30.5C 392.427,28.9731 393.094,27.9731 394.5,27.5 Z"/></g>
<g><path style="opacity:0.753" fill="#cd5c9e" d="M 684.5,26.5 C 684.573,28.0269 683.906,29.0269 682.5,29.5C 682.427,27.9731 683.094,26.9731 684.5,26.5 Z"/></g>
<g><path style="opacity:0.314" fill="#cc589b" d="M 758.5,27.5 C 759.906,27.9731 760.573,28.9731 760.5,30.5C 759.094,30.0269 758.427,29.0269 758.5,27.5 Z"/></g>
<g><path style="opacity:0.314" fill="#cc589b" d="M 375.5,28.5 C 376.906,28.9731 377.573,29.9731 377.5,31.5C 376.094,31.0269 375.427,30.0269 375.5,28.5 Z"/></g>
<g><path style="opacity:0.314" fill="#cc589b" d="M 703.5,27.5 C 703.573,29.0269 702.906,30.0269 701.5,30.5C 701.427,28.9731 702.094,27.9731 703.5,27.5 Z"/></g>
<g><path style="opacity:0.393" fill="#cc589b" d="M 153.5,29.5 C 156.167,30.1667 157.833,31.8333 158.5,34.5C 156.5,33.1667 154.833,31.5 153.5,29.5 Z"/></g>
<g><path style="opacity:0.314" fill="#cc589b" d="M 392.5,30.5 C 392.573,32.0269 391.906,33.0269 390.5,33.5C 390.427,31.9731 391.094,30.9731 392.5,30.5 Z"/></g>
<g><path style="opacity:0.753" fill="#cd5c9e" d="M 682.5,29.5 C 682.573,31.0269 681.906,32.0269 680.5,32.5C 680.427,30.9731 681.094,29.9731 682.5,29.5 Z"/></g>
<g><path style="opacity:0.314" fill="#cc589b" d="M 377.5,31.5 C 378.906,31.9731 379.573,32.9731 379.5,34.5C 378.094,34.0269 377.427,33.0269 377.5,31.5 Z"/></g>
<g><path style="opacity:0.35" fill="#cc589b" d="M 454.5,29.5 C 455.488,30.795 456.488,32.1283 457.5,33.5C 455.088,33.3059 454.088,31.9726 454.5,29.5 Z"/></g>
<g><path style="opacity:0.314" fill="#cc589b" d="M 412.5,31.5 C 412.573,33.0269 411.906,34.0269 410.5,34.5C 410.427,32.9731 411.094,31.9731 412.5,31.5 Z"/></g>
<g><path style="opacity:0.314" fill="#cc589b" d="M 700.5,31.5 C 700.573,33.0269 699.906,34.0269 698.5,34.5C 698.427,32.9731 699.094,31.9731 700.5,31.5 Z"/></g>
<g><path style="opacity:0.314" fill="#cc579a" d="M 292.5,32.5 C 291.713,34.1042 290.38,34.7709 288.5,34.5C 289.514,33.3263 290.847,32.6596 292.5,32.5 Z"/></g>
<g><path style="opacity:0.314" fill="#cc589b" d="M 390.5,33.5 C 390.573,35.0269 389.906,36.0269 388.5,36.5C 388.427,34.9731 389.094,33.9731 390.5,33.5 Z"/></g>
<g><path style="opacity:0.314" fill="#cc579a" d="M 507.5,32.5 C 506.713,34.1042 505.38,34.7709 503.5,34.5C 504.514,33.3263 505.847,32.6596 507.5,32.5 Z"/></g>
<g><path style="opacity:0.373" fill="#cc589b" d="M 545.5,31.5 C 546.931,32.7804 547.598,34.4471 547.5,36.5C 546.069,35.2196 545.402,33.5529 545.5,31.5 Z"/></g>
<g><path style="opacity:0.373" fill="#cc579a" d="M 680.5,32.5 C 680.573,34.0269 679.906,35.0269 678.5,35.5C 678.427,33.9731 679.094,32.9731 680.5,32.5 Z"/></g>
<g><path style="opacity:0.345" fill="#cc589b" d="M 743.5,33.5 C 744.833,33.5 745.5,34.1667 745.5,35.5C 744.5,35.1667 743.833,34.5 743.5,33.5 Z"/></g>
<g><path style="opacity:0.327" fill="#cd5a9c" d="M 379.5,34.5 C 380.906,34.9731 381.573,35.9731 381.5,37.5C 380.094,37.0269 379.427,36.0269 379.5,34.5 Z"/></g>
<g><path style="opacity:0.314" fill="#cc589b" d="M 410.5,34.5 C 410.573,36.0269 409.906,37.0269 408.5,37.5C 408.427,35.9731 409.094,34.9731 410.5,34.5 Z"/></g>
<g><path style="opacity:0.314" fill="#cc589b" d="M 678.5,35.5 C 678.573,37.0269 677.906,38.0269 676.5,38.5C 676.427,36.9731 677.094,35.9731 678.5,35.5 Z"/></g>
<g><path style="opacity:0.374" fill="#cc589b" d="M 697.5,35.5 C 697.573,37.0269 696.906,38.0269 695.5,38.5C 695.427,36.9731 696.094,35.9731 697.5,35.5 Z"/></g>
<g><path style="opacity:0.373" fill="#cc579b" d="M 527.5,34.5 C 527.598,36.5529 526.931,38.2196 525.5,39.5C 525.402,37.4471 526.069,35.7804 527.5,34.5 Z"/></g>
<g><path style="opacity:0.373" fill="#cc589b" d="M 745.5,35.5 C 747.167,36.5 748.5,37.8333 749.5,39.5C 747.167,39.1667 745.833,37.8333 745.5,35.5 Z"/></g>
<g><path style="opacity:0.443" fill="#cd599b" d="M 159.5,35.5 C 160.906,35.9731 161.573,36.9731 161.5,38.5C 160.094,38.0269 159.427,37.0269 159.5,35.5 Z"/></g>
<g><path style="opacity:0.373" fill="#cc589b" d="M 381.5,37.5 C 382.833,37.8333 384.167,38.1667 385.5,38.5C 383.872,39.8528 382.538,39.5195 381.5,37.5 Z"/></g>
<g><path style="opacity:0.753" fill="#cd5c9d" d="M 388.5,36.5 C 388.179,38.0481 387.179,38.7148 385.5,38.5C 386.29,37.5987 387.29,36.9321 388.5,36.5 Z"/></g>
<g><path style="opacity:0.314" fill="#cc589b" d="M 408.5,37.5 C 408.573,39.0269 407.906,40.0269 406.5,40.5C 406.427,38.9731 407.094,37.9731 408.5,37.5 Z"/></g>
<g><path style="opacity:0.314" fill="#cc589b" d="M 676.5,38.5 C 676.573,40.0269 675.906,41.0269 674.5,41.5C 674.427,39.9731 675.094,38.9731 676.5,38.5 Z"/></g>
<g><path style="opacity:0.443" fill="#cc599b" d="M 94.5,37.5 C 94.573,39.0269 93.9063,40.0269 92.5,40.5C 92.427,38.9731 93.0937,37.9731 94.5,37.5 Z"/></g>
<g><path style="opacity:0.433" fill="#cc589b" d="M 116.5,39.5 C 116.027,40.9063 115.027,41.573 113.5,41.5C 113.973,40.0937 114.973,39.427 116.5,39.5 Z"/></g>
<g><path style="opacity:0.314" fill="#cc589b" d="M 138.5,39.5 C 140.027,39.427 141.027,40.0937 141.5,41.5C 139.973,41.573 138.973,40.9063 138.5,39.5 Z"/></g>
<g><path style="opacity:0.314" fill="#cc589b" d="M 361.5,38.5 C 362.906,38.9731 363.573,39.9731 363.5,41.5C 362.094,41.0269 361.427,40.0269 361.5,38.5 Z"/></g>
<g><path style="opacity:0.284" fill="#cc589b" d="M 406.5,40.5 C 406.573,42.0269 405.906,43.0269 404.5,43.5C 404.427,41.9731 405.094,40.9731 406.5,40.5 Z"/></g>
<g><path style="opacity:0.314" fill="#cc589b" d="M 363.5,41.5 C 364.906,41.9731 365.573,42.9731 365.5,44.5C 364.094,44.0269 363.427,43.0269 363.5,41.5 Z"/></g>
<g><path style="opacity:0.314" fill="#cc589b" d="M 692.5,42.5 C 692.573,44.0269 691.906,45.0269 690.5,45.5C 690.427,43.9731 691.094,42.9731 692.5,42.5 Z"/></g>
<g><path style="opacity:0.753" fill="#cd5c9e" d="M 673.5,43.5 C 673.573,45.0269 672.906,46.0269 671.5,46.5C 671.427,44.9731 672.094,43.9731 673.5,43.5 Z"/></g>
<g><path style="opacity:0.314" fill="#cc589b" d="M 144.5,44.5 C 145.906,44.9731 146.573,45.9731 146.5,47.5C 145.094,47.0269 144.427,46.0269 144.5,44.5 Z"/></g>
<g><path style="opacity:0.32" fill="#cc589b" d="M 261.5,45.5 C 262.833,46.1667 263.833,47.1667 264.5,48.5C 262.5,48.5 261.5,47.5 261.5,45.5 Z"/></g>
<g><path style="opacity:0.284" fill="#cc589b" d="M 365.5,44.5 C 366.906,44.9731 367.573,45.9731 367.5,47.5C 366.094,47.0269 365.427,46.0269 365.5,44.5 Z"/></g>
<g><path style="opacity:0.314" fill="#cc589b" d="M 690.5,45.5 C 690.573,47.0269 689.906,48.0269 688.5,48.5C 688.427,46.9731 689.094,45.9731 690.5,45.5 Z"/></g>
<g><path style="opacity:0.753" fill="#ce5c9e" d="M 671.5,46.5 C 671.573,48.0269 670.906,49.0269 669.5,49.5C 669.427,47.9731 670.094,46.9731 671.5,46.5 Z"/></g>
<g><path style="opacity:0.314" fill="#cc589b" d="M 688.5,48.5 C 688.573,50.0269 687.906,51.0269 686.5,51.5C 686.427,49.9731 687.094,48.9731 688.5,48.5 Z"/></g>
<g><path style="opacity:0.102" fill="#cc579b" d="M 324.5,50.5 C 325.33,59.324 325.83,68.324 326,77.5C 326.5,78 327,78.5 327.5,79C 332.351,79.1745 337.018,79.6745 341.5,80.5C 336.489,80.6659 331.489,80.4993 326.5,80C 326,79.5 325.5,79 325,78.5C 324.5,69.1726 324.334,59.8393 324.5,50.5 Z"/></g>
<g><path style="opacity:0.373" fill="#cc589b" d="M 669.5,49.5 C 668.86,52.6822 667.86,53.0155 666.5,50.5C 667.609,50.4431 668.609,50.1098 669.5,49.5 Z"/></g>
<g><path style="opacity:0.608" fill="#cc599b" d="M 491.5,51.5 C 492.048,52.6885 492.381,53.8552 492.5,55C 491.842,67.9313 491.175,80.7647 490.5,93.5C 490.171,79.3234 490.504,65.3234 491.5,51.5 Z"/></g>
<g><path style="opacity:0.314" fill="#cc589b" d="M 714.5,50.5 C 715.906,50.9731 716.573,51.9731 716.5,53.5C 715.094,53.0269 714.427,52.0269 714.5,50.5 Z"/></g>
<g><path style="opacity:0.314" fill="#cc589b" d="M 750.5,53.5 C 752.027,53.427 753.027,54.0937 753.5,55.5C 751.973,55.573 750.973,54.9063 750.5,53.5 Z"/></g>
<g><path style="opacity:0.628" fill="#cc589b" d="M 289.5,50.5 C 290.117,50.6107 290.617,50.944 291,51.5C 291.81,55.3575 291.643,59.0242 290.5,62.5C 290.693,58.4338 290.36,54.4338 289.5,50.5 Z"/></g>
<g><path style="opacity:0.753" fill="#ce5e9e" d="M 539.5,58.5 C 538.685,57.5707 537.852,56.5707 537,55.5C 536.617,56.056 536.117,56.3893 535.5,56.5C 535.843,54.7748 536.843,54.2748 538.5,55C 539.337,56.0113 539.67,57.1779 539.5,58.5 Z"/></g>
<g><path style="opacity:0.373" fill="#cc579b" d="M 518.5,53.5 C 518.598,55.5529 517.931,57.2196 516.5,58.5C 516.402,56.4471 517.069,54.7804 518.5,53.5 Z"/></g>
<g><path style="opacity:0.397" fill="#cc589b" d="M 720.5,57.5 C 722.027,57.427 723.027,58.0937 723.5,59.5C 721.973,59.573 720.973,58.9063 720.5,57.5 Z"/></g>
<g><path style="opacity:0.327" fill="#cc589b" d="M 755.5,57.5 C 757.833,57.8333 759.167,59.1667 759.5,61.5C 757.833,60.5 756.5,59.1667 755.5,57.5 Z"/></g>
<g><path style="opacity:0.125" fill="#cc579a" d="M 371.5,53.5 C 374.075,55.8453 375.075,58.8453 374.5,62.5C 373.633,59.5565 372.633,56.5565 371.5,53.5 Z"/></g>
<g><path style="opacity:0.753" fill="#ce5e9e" d="M 51.5,58.5 C 52.2263,64.5336 52.5596,71.2003 52.5,78.5C 50.6144,71.8832 50.281,65.2165 51.5,58.5 Z"/></g>
<g><path style="opacity:0.345" fill="#cc579b" d="M 666.5,60.5 C 667.947,59.1148 668.947,59.4482 669.5,61.5C 668.609,60.8902 667.609,60.5569 666.5,60.5 Z"/></g>
<g><path style="opacity:0.42" fill="#cd5b9c" d="M 723.5,59.5 C 725.027,59.427 726.027,60.0937 726.5,61.5C 724.973,61.573 723.973,60.9063 723.5,59.5 Z"/></g>
<g><path style="opacity:0.35" fill="#cc589b" d="M 290.5,62.5 C 290.306,64.9118 288.973,65.9118 286.5,65.5C 287.795,64.5116 289.128,63.5116 290.5,62.5 Z"/></g>
<g><path style="opacity:0.373" fill="#cc579b" d="M 540.5,60.5 C 541.931,61.7804 542.598,63.4471 542.5,65.5C 541.069,64.2196 540.402,62.5529 540.5,60.5 Z"/></g>
<g><path style="opacity:0.443" fill="#cd599b" d="M 726.5,61.5 C 728.027,61.427 729.027,62.0937 729.5,63.5C 727.973,63.573 726.973,62.9063 726.5,61.5 Z"/></g>
<g><path style="opacity:0.42" fill="#cd5b9c" d="M 759.5,61.5 C 760.906,61.9731 761.573,62.9731 761.5,64.5C 760.094,64.0269 759.427,63.0269 759.5,61.5 Z"/></g>
<g><path style="opacity:0.375" fill="#cd5a9c" d="M 688.5,62.5 C 689.906,62.9731 690.573,63.9731 690.5,65.5C 689.094,65.0269 688.427,64.0269 688.5,62.5 Z"/></g>
<g><path style="opacity:0.314" fill="#cc589b" d="M 670.5,63.5 C 671.906,63.9731 672.573,64.9731 672.5,66.5C 671.094,66.0269 670.427,65.0269 670.5,63.5 Z"/></g>
<g><path style="opacity:0.102" fill="#cc579a" d="M 286.5,65.5 C 278.631,66.2261 270.631,66.8927 262.5,67.5C 262.611,66.8826 262.944,66.3826 263.5,66C 271.159,65.5003 278.826,65.3336 286.5,65.5 Z"/></g>
<g><path style="opacity:0.375" fill="#cd5a9c" d="M 690.5,65.5 C 691.906,65.9731 692.573,66.9731 692.5,68.5C 691.094,68.0269 690.427,67.0269 690.5,65.5 Z"/></g>
<g><path style="opacity:0.443" fill="#cd599b" d="M 761.5,64.5 C 762.906,64.9731 763.573,65.9731 763.5,67.5C 762.094,67.0269 761.427,66.0269 761.5,64.5 Z"/></g>
<g><path style="opacity:0.373" fill="#cc579a" d="M 740.5,67.5 C 742.027,67.427 743.027,68.0937 743.5,69.5C 741.973,69.573 740.973,68.9063 740.5,67.5 Z"/></g>
<g><path style="opacity:0.314" fill="#cd5a9c" d="M 692.5,68.5 C 694.262,69.2623 695.262,70.5956 695.5,72.5C 693.738,71.7377 692.738,70.4044 692.5,68.5 Z"/></g>
<g><path style="opacity:0.373" fill="#cc589b" d="M 511.5,68.5 C 511.598,70.5529 510.931,72.2196 509.5,73.5C 509.402,71.4471 510.069,69.7804 511.5,68.5 Z"/></g>
<g><path style="opacity:0.208" fill="#cc589b" d="M 530.5,71.5 C 532.306,72.0241 533.972,72.6908 535.5,73.5C 533.219,73.9227 531.552,73.256 530.5,71.5 Z"/></g>
<g><path style="opacity:0.373" fill="#cc579b" d="M 563.5,69.5 C 564.931,70.7804 565.598,72.4471 565.5,74.5C 564.069,73.2196 563.402,71.5529 563.5,69.5 Z"/></g>
<g><path style="opacity:0.373" fill="#cc579a" d="M 108.5,71.5 C 109.906,71.9731 110.573,72.9731 110.5,74.5C 109.094,74.0269 108.427,73.0269 108.5,71.5 Z"/></g>
<g><path style="opacity:0.373" fill="#cc589b" d="M 184.5,70.5 C 185.931,71.7804 186.598,73.4471 186.5,75.5C 185.069,74.2196 184.402,72.5529 184.5,70.5 Z"/></g>
<g><path style="opacity:0.314" fill="#cc589b" d="M 695.5,72.5 C 696.906,72.9731 697.573,73.9731 697.5,75.5C 696.094,75.0269 695.427,74.0269 695.5,72.5 Z"/></g>
<g><path style="opacity:0.753" fill="#ce5f9f" d="M 145.5,73.5 C 144.833,76.1667 143.167,77.8333 140.5,78.5C 141.833,76.5 143.5,74.8333 145.5,73.5 Z"/></g>
<g><path style="opacity:0.314" fill="#cc589b" d="M 677.5,74.5 C 678.906,74.9731 679.573,75.9731 679.5,77.5C 678.094,77.0269 677.427,76.0269 677.5,74.5 Z"/></g>
<g><path style="opacity:0.35" fill="#cc589b" d="M 728.5,75.5 C 730.5,75.5 731.5,76.5 731.5,78.5C 730.167,77.8333 729.167,76.8333 728.5,75.5 Z"/></g>
<g><path style="opacity:0.327" fill="#cd5a9c" d="M 697.5,75.5 C 698.906,75.9731 699.573,76.9731 699.5,78.5C 698.094,78.0269 697.427,77.0269 697.5,75.5 Z"/></g>
<g><path style="opacity:0.373" fill="#cc579a" d="M 163.5,76.5 C 163.771,78.3797 163.104,79.713 161.5,80.5C 161.66,78.847 162.326,77.5137 163.5,76.5 Z"/></g>
<g><path style="opacity:0.375" fill="#cd5a9c" d="M 699.5,78.5 C 700.906,78.9731 701.573,79.9731 701.5,81.5C 700.094,81.0269 699.427,80.0269 699.5,78.5 Z"/></g>
<g><path style="opacity:0.403" fill="#cd589b" d="M 292.5,81.5 C 293.833,81.5 294.5,82.1667 294.5,83.5C 293.5,83.1667 292.833,82.5 292.5,81.5 Z"/></g>
<g><path style="opacity:0.464" fill="#cc599b" d="M 634.5,81.5 C 635.833,81.5 636.5,82.1667 636.5,83.5C 635.5,83.1667 634.833,82.5 634.5,81.5 Z"/></g>
<g><path style="opacity:0.373" fill="#cc589b" d="M 206.5,80.5 C 206.598,82.5529 205.931,84.2196 204.5,85.5C 204.402,83.4471 205.069,81.7804 206.5,80.5 Z"/></g>
<g><path style="opacity:0.284" fill="#cd599c" d="M 701.5,81.5 C 703.262,82.2623 704.262,83.5956 704.5,85.5C 702.738,84.7377 701.738,83.4044 701.5,81.5 Z"/></g>
<g><path style="opacity:0.443" fill="#cc599b" d="M 356.5,81.5 C 357.906,81.9731 358.573,82.9731 358.5,84.5C 357.094,84.0269 356.427,83.0269 356.5,81.5 Z"/></g>
<g><path style="opacity:0.314" fill="#cc589b" d="M 682.5,82.5 C 683.906,82.9731 684.573,83.9731 684.5,85.5C 683.094,85.0269 682.427,84.0269 682.5,82.5 Z"/></g>
<g><path style="opacity:0.338" fill="#cc589b" d="M 159.5,83.5 C 159.262,85.4044 158.262,86.7377 156.5,87.5C 156.738,85.5956 157.738,84.2623 159.5,83.5 Z"/></g>
<g><path style="opacity:0.628" fill="#cc599b" d="M 86.5,82.5 C 87.1174,82.6107 87.6174,82.944 88,83.5C 88.6667,87.1667 88.6667,90.8333 88,94.5C 87.6174,95.056 87.1174,95.3893 86.5,95.5C 87.8333,91.1667 87.8333,86.8333 86.5,82.5 Z"/></g>
<g><path style="opacity:0.314" fill="#cc589b" d="M 704.5,85.5 C 705.906,85.9731 706.573,86.9731 706.5,88.5C 705.094,88.0269 704.427,87.0269 704.5,85.5 Z"/></g>
<g><path style="opacity:0.282" fill="#cc589b" d="M 97.5,85.5 C 99.1667,86.5 100.5,87.8333 101.5,89.5C 99.1667,89.1667 97.8333,87.8333 97.5,85.5 Z"/></g>
<g><path style="opacity:0.373" fill="#cc579a" d="M 684.5,85.5 C 685.906,85.9731 686.573,86.9731 686.5,88.5C 685.094,88.0269 684.427,87.0269 684.5,85.5 Z"/></g>
<g><path style="opacity:0.348" fill="#cc589b" d="M 156.5,87.5 C 155.415,89.5869 153.749,90.9202 151.5,91.5C 152.585,89.4131 154.251,88.0798 156.5,87.5 Z"/></g>
<g><path style="opacity:0.345" fill="#cc589b" d="M 551.5,87.5 C 552.833,87.5 553.5,88.1667 553.5,89.5C 552.5,89.1667 551.833,88.5 551.5,87.5 Z"/></g>
<g><path style="opacity:0.327" fill="#cc589b" d="M 521.5,88.5 C 521.167,90.8333 519.833,92.1667 517.5,92.5C 518.5,90.8333 519.833,89.5 521.5,88.5 Z"/></g>
<g><path style="opacity:0.314" fill="#cc589b" d="M 706.5,88.5 C 707.906,88.9731 708.573,89.9731 708.5,91.5C 707.094,91.0269 706.427,90.0269 706.5,88.5 Z"/></g>
<g><path style="opacity:0.314" fill="#cc589b" d="M 718.5,87.5 C 719.906,87.9731 720.573,88.9731 720.5,90.5C 719.094,90.0269 718.427,89.0269 718.5,87.5 Z"/></g>
<g><path style="opacity:0.314" fill="#cc589b" d="M 686.5,88.5 C 687.906,88.9731 688.573,89.9731 688.5,91.5C 687.094,91.0269 686.427,90.0269 686.5,88.5 Z"/></g>
<g><path style="opacity:0.252" fill="#cc579a" d="M 758.5,89.5 C 758.5,91.5 757.5,92.5 755.5,92.5C 756.167,91.1667 757.167,90.1667 758.5,89.5 Z"/></g>
<g><path style="opacity:0.314" fill="#cd599c" d="M 102.5,90.5 C 104.404,90.7376 105.738,91.7376 106.5,93.5C 104.596,93.2624 103.262,92.2624 102.5,90.5 Z"/></g>
<g><path style="opacity:0.373" fill="#cc579a" d="M 151.5,91.5 C 151.027,92.9063 150.027,93.573 148.5,93.5C 148.973,92.0937 149.973,91.427 151.5,91.5 Z"/></g>
<g><path style="opacity:0.464" fill="#cc599b" d="M 572.5,91.5 C 572.5,92.8333 571.833,93.5 570.5,93.5C 570.833,92.5 571.5,91.8333 572.5,91.5 Z"/></g>
<g><path style="opacity:0.163" fill="#cc589b" d="M 517.5,92.5 C 515.366,94.0334 512.866,94.7001 510,94.5C 507.967,94.4944 506.134,94.1611 504.5,93.5C 508.881,93.6282 513.215,93.2949 517.5,92.5 Z"/></g>
<g><path style="opacity:0.252" fill="#cc579a" d="M 688.5,91.5 C 689.833,92.1667 690.833,93.1667 691.5,94.5C 689.5,94.5 688.5,93.5 688.5,91.5 Z"/></g>
<g><path style="opacity:0.327" fill="#cc589b" d="M 294.5,93.5 C 294.5,95.5 293.5,96.5 291.5,96.5C 292.167,95.1667 293.167,94.1667 294.5,93.5 Z"/></g>
<g><path style="opacity:0.337" fill="#cc589b" d="M 305.5,90.5 C 306.377,92.7278 307.71,94.7278 309.5,96.5C 306.224,95.8784 304.891,93.8784 305.5,90.5 Z"/></g>
<g><path style="opacity:0.351" fill="#cc589b" d="M 636.5,93.5 C 636.5,95.5 635.5,96.5 633.5,96.5C 634.167,95.1667 635.167,94.1667 636.5,93.5 Z"/></g>
<g><path style="opacity:0.327" fill="#cc589b" d="M 665.5,93.5 C 665.5,95.5 664.5,96.5 662.5,96.5C 663.167,95.1667 664.167,94.1667 665.5,93.5 Z"/></g>
<g><path style="opacity:0.314" fill="#cd5a9c" d="M 722.5,92.5 C 724.404,92.7376 725.738,93.7376 726.5,95.5C 724.596,95.2624 723.262,94.2624 722.5,92.5 Z"/></g>
<g><path style="opacity:0.374" fill="#cc589b" d="M 393.5,93.5 C 393.5,95.5 392.5,96.5 390.5,96.5C 391.167,95.1667 392.167,94.1667 393.5,93.5 Z"/></g>
<g><path style="opacity:0.374" fill="#cc589b" d="M 648.5,94.5 C 650.027,94.427 651.027,95.0937 651.5,96.5C 649.973,96.573 648.973,95.9063 648.5,94.5 Z"/></g>
<g><path style="opacity:0.42" fill="#cd5b9c" d="M 473.5,94.5 C 475.027,94.427 476.027,95.0937 476.5,96.5C 474.973,96.573 473.973,95.9063 473.5,94.5 Z"/></g>
<g><path style="opacity:0.42" fill="#cd5b9c" d="M 585.5,94.5 C 587.027,94.427 588.027,95.0937 588.5,96.5C 586.973,96.573 585.973,95.9063 585.5,94.5 Z"/></g>
<g><path style="opacity:0.374" fill="#cc589b" d="M 199.5,96.5 C 199.013,99.7145 198.013,100.048 196.5,97.5C 197.609,97.4431 198.609,97.1098 199.5,96.5 Z"/></g>
<g><path style="opacity:0.102" fill="#cd589b" d="M 377.5,95.5 C 381.768,96.3726 386.102,96.7059 390.5,96.5C 386.689,97.6453 382.689,97.8119 378.5,97C 377.944,96.6174 377.611,96.1174 377.5,95.5 Z"/></g>
</svg>
