<svg width="118" height="60" viewBox="0 0 118 60" fill="none" xmlns="http://www.w3.org/2000/svg">
<g clip-path="url(#clip0_400_22)">
<path fill-rule="evenodd" clip-rule="evenodd" d="M82 41L82 33.5C82 33.5 82 28.5 76.3476 27.141C72 26 71.8087 23.2732 72.4536 23.2732C77.0082 23.2732 74.7202 20.0857 72.9404 16.9879C69.5 11 74 12 72.9404 9.73573C70.1578 5.47612 66.0835 2.63523 61 2.00002C58.2234 1.65308 54.4446 2.00002 54.4446 2.00002C49.5 2.5 36 6 34.9753 21.3392C34.9753 37.2941 49.5 41 56 40.6785C56 38.2611 56 32 56 32C56 32 43.8729 32 43.8729 21.3392C43.8729 15.3851 48.8677 9.73573 55.8604 9.73573C62 9.73573 64.8958 13.5076 64.6659 16.9879C64.5 19.5 62.3536 20.5 57.8516 19.5C54.4446 18.5 52.0109 24.2401 57.8516 26.6575C61 28.5 68.0731 28.5915 68.0731 33.9097C68.0731 39.228 68.0731 40.6785 68.0731 40.6785L75.5 37.5L82 41Z" fill="#FFAC06"/>
<path d="M9.26943 51.0795C9.17473 50.7727 9.04405 50.4981 8.87739 50.2557C8.71451 50.0095 8.51754 49.7992 8.28648 49.625C8.0592 49.4508 7.79784 49.3201 7.50238 49.233C7.20693 49.142 6.88496 49.0966 6.53648 49.0966C5.91148 49.0966 5.35466 49.2538 4.86602 49.5682C4.37738 49.8826 3.99291 50.3447 3.71261 50.9545C3.4361 51.5606 3.29784 52.2992 3.29784 53.1705C3.29784 54.0492 3.4361 54.7936 3.71261 55.4034C3.98913 56.0133 4.3736 56.4773 4.86602 56.7955C5.35845 57.1098 5.93042 57.267 6.58193 57.267C7.17284 57.267 7.6842 57.1534 8.11602 56.9261C8.55163 56.6989 8.88685 56.3769 9.1217 55.9602C9.35655 55.5398 9.47398 55.0473 9.47398 54.483L9.95125 54.5568H6.79216V52.9091H11.5137V54.3068C11.5137 55.303 11.3016 56.1648 10.8774 56.892C10.4531 57.6193 9.86981 58.1799 9.12739 58.5739C8.38496 58.964 7.53269 59.1591 6.57057 59.1591C5.4986 59.1591 4.55731 58.9186 3.7467 58.4375C2.93988 57.9527 2.3092 57.2652 1.85466 56.375C1.4039 55.4811 1.17852 54.4205 1.17852 53.1932C1.17852 52.2538 1.3111 51.4148 1.57625 50.6761C1.84519 49.9375 2.22019 49.3106 2.70125 48.7955C3.18231 48.2765 3.7467 47.8826 4.39443 47.6136C5.04216 47.3409 5.7467 47.2045 6.50807 47.2045C7.15201 47.2045 7.75238 47.2992 8.3092 47.4886C8.86602 47.6742 9.36034 47.9394 9.79216 48.2841C10.2278 48.6288 10.5857 49.0379 10.866 49.5114C11.1463 49.9848 11.33 50.5076 11.4172 51.0795H9.26943ZM15.7921 59V47.3636H17.9001V57.233H23.0251V59H15.7921ZM37.0392 53.1818C37.0392 54.4356 36.8044 55.5095 36.3347 56.4034C35.8687 57.2936 35.2324 57.9754 34.4256 58.4489C33.6225 58.9223 32.7116 59.1591 31.6926 59.1591C30.6737 59.1591 29.7608 58.9223 28.954 58.4489C28.1509 57.9716 27.5146 57.2879 27.0449 56.3977C26.579 55.5038 26.346 54.4318 26.346 53.1818C26.346 51.928 26.579 50.8561 27.0449 49.9659C27.5146 49.072 28.1509 48.3883 28.954 47.9148C29.7608 47.4413 30.6737 47.2045 31.6926 47.2045C32.7116 47.2045 33.6225 47.4413 34.4256 47.9148C35.2324 48.3883 35.8687 49.072 36.3347 49.9659C36.8044 50.8561 37.0392 51.928 37.0392 53.1818ZM34.9199 53.1818C34.9199 52.2992 34.7816 51.5549 34.5051 50.9489C34.2324 50.339 33.8536 49.8788 33.3687 49.5682C32.8839 49.2538 32.3252 49.0966 31.6926 49.0966C31.06 49.0966 30.5013 49.2538 30.0165 49.5682C29.5316 49.8788 29.1509 50.339 28.8744 50.9489C28.6017 51.5549 28.4653 52.2992 28.4653 53.1818C28.4653 54.0644 28.6017 54.8106 28.8744 55.4205C29.1509 56.0265 29.5316 56.4867 30.0165 56.8011C30.5013 57.1117 31.06 57.267 31.6926 57.267C32.3252 57.267 32.8839 57.1117 33.3687 56.8011C33.8536 56.4867 34.2324 56.0265 34.5051 55.4205C34.7816 54.8106 34.9199 54.0644 34.9199 53.1818ZM41.2721 59V47.3636H45.7266C46.5676 47.3636 47.2664 47.4962 47.8232 47.7614C48.3838 48.0227 48.8024 48.3807 49.0789 48.8352C49.3592 49.2898 49.4994 49.8049 49.4994 50.3807C49.4994 50.8542 49.4085 51.2595 49.2266 51.5966C49.0448 51.9299 48.8005 52.2008 48.4937 52.4091C48.1869 52.6174 47.8441 52.767 47.4653 52.858V52.9716C47.8782 52.9943 48.274 53.1212 48.6528 53.3523C49.0354 53.5795 49.3479 53.9015 49.5903 54.3182C49.8327 54.7348 49.9539 55.2386 49.9539 55.8295C49.9539 56.4318 49.8081 56.9735 49.5164 57.4545C49.2248 57.9318 48.7854 58.3087 48.1982 58.5852C47.6111 58.8617 46.8725 59 45.9823 59H41.2721ZM43.3801 57.2386H45.6471C46.4123 57.2386 46.9634 57.0928 47.3005 56.8011C47.6414 56.5057 47.8119 56.1269 47.8119 55.6648C47.8119 55.3201 47.7266 55.0095 47.5562 54.733C47.3857 54.4527 47.1433 54.233 46.8289 54.0739C46.5145 53.911 46.1395 53.8295 45.7039 53.8295H43.3801V57.2386ZM43.3801 52.3125H45.4653C45.8289 52.3125 46.1566 52.2462 46.4482 52.1136C46.7399 51.9773 46.9691 51.786 47.1357 51.5398C47.3062 51.2898 47.3914 50.9943 47.3914 50.6534C47.3914 50.2027 47.2323 49.8314 46.9141 49.5398C46.5998 49.2481 46.132 49.1023 45.5107 49.1023H43.3801V52.3125ZM56.1357 47.3636V59H54.0277V47.3636H56.1357ZM60.147 49.1307V47.3636H69.4311V49.1307H65.8345V59H63.7436V49.1307H60.147ZM79.7847 50.5625C79.7317 50.0663 79.5082 49.6799 79.1143 49.4034C78.7241 49.1269 78.2165 48.9886 77.5915 48.9886C77.1521 48.9886 76.7752 49.0549 76.4609 49.1875C76.1465 49.3201 75.9059 49.5 75.7393 49.7273C75.5726 49.9545 75.4874 50.214 75.4836 50.5057C75.4836 50.7481 75.5385 50.9583 75.6484 51.1364C75.762 51.3144 75.9154 51.4659 76.1086 51.5909C76.3018 51.7121 76.5158 51.8144 76.7506 51.8977C76.9855 51.9811 77.2222 52.0511 77.4609 52.108L78.5518 52.3807C78.9912 52.483 79.4135 52.6212 79.8188 52.7955C80.2279 52.9697 80.5934 53.1894 80.9154 53.4545C81.2412 53.7197 81.4987 54.0398 81.6881 54.4148C81.8775 54.7898 81.9722 55.2292 81.9722 55.733C81.9722 56.4148 81.798 57.0152 81.4495 57.5341C81.101 58.0492 80.5972 58.4527 79.9381 58.7443C79.2828 59.0322 78.4893 59.1761 77.5574 59.1761C76.6521 59.1761 75.8662 59.036 75.1995 58.7557C74.5366 58.4754 74.0177 58.0663 73.6427 57.5284C73.2715 56.9905 73.0707 56.3352 73.0404 55.5625H75.1143C75.1446 55.9678 75.2696 56.3049 75.4893 56.5739C75.709 56.8428 75.9949 57.0436 76.3472 57.1761C76.7033 57.3087 77.101 57.375 77.5404 57.375C77.9987 57.375 78.4002 57.3068 78.7449 57.1705C79.0934 57.0303 79.3662 56.8371 79.5631 56.5909C79.7601 56.3409 79.8605 56.0492 79.8643 55.7159C79.8605 55.4129 79.7715 55.1629 79.5972 54.9659C79.423 54.7652 79.1787 54.5985 78.8643 54.4659C78.5537 54.3295 78.19 54.2083 77.7734 54.1023L76.4495 53.7614C75.4912 53.5152 74.7336 53.142 74.1768 52.642C73.6237 52.1383 73.3472 51.4697 73.3472 50.6364C73.3472 49.9508 73.5328 49.3504 73.904 48.8352C74.279 48.3201 74.7885 47.9205 75.4324 47.6364C76.0764 47.3485 76.8056 47.2045 77.6199 47.2045C78.4457 47.2045 79.1692 47.3485 79.7904 47.6364C80.4154 47.9205 80.9059 48.3163 81.262 48.8239C81.6181 49.3277 81.8018 49.9072 81.8131 50.5625H79.7847ZM102.26 51.2898H100.135C100.075 50.9413 99.9631 50.6326 99.8002 50.3636C99.6373 50.0909 99.4347 49.8598 99.1923 49.6705C98.9498 49.4811 98.6733 49.339 98.3627 49.2443C98.0559 49.1458 97.7245 49.0966 97.3684 49.0966C96.7358 49.0966 96.1752 49.2557 95.6866 49.5739C95.198 49.8883 94.8154 50.3504 94.5389 50.9602C94.2623 51.5663 94.1241 52.3068 94.1241 53.1818C94.1241 54.072 94.2623 54.822 94.5389 55.4318C94.8192 56.0379 95.2017 56.4962 95.6866 56.8068C96.1752 57.1136 96.7339 57.267 97.3627 57.267C97.7112 57.267 98.037 57.2216 98.34 57.1307C98.6468 57.036 98.9214 56.8977 99.1639 56.7159C99.4101 56.5341 99.6165 56.3106 99.7832 56.0455C99.9536 55.7803 100.071 55.4773 100.135 55.1364L102.26 55.1477C102.181 55.7008 102.009 56.2197 101.743 56.7045C101.482 57.1894 101.139 57.6174 100.715 57.9886C100.291 58.3561 99.7945 58.6439 99.2264 58.8523C98.6582 59.0568 98.0275 59.1591 97.3343 59.1591C96.3116 59.1591 95.3987 58.9223 94.5957 58.4489C93.7926 57.9754 93.1601 57.2917 92.698 56.3977C92.2358 55.5038 92.0048 54.4318 92.0048 53.1818C92.0048 51.928 92.2377 50.8561 92.7036 49.9659C93.1695 49.072 93.804 48.3883 94.607 47.9148C95.4101 47.4413 96.3192 47.2045 97.3343 47.2045C97.982 47.2045 98.5843 47.2955 99.1411 47.4773C99.698 47.6591 100.194 47.9261 100.63 48.2784C101.065 48.6269 101.423 49.0549 101.704 49.5625C101.988 50.0663 102.173 50.642 102.26 51.2898ZM116.829 53.1818C116.829 54.4356 116.594 55.5095 116.124 56.4034C115.658 57.2936 115.022 57.9754 114.215 58.4489C113.412 58.9223 112.501 59.1591 111.482 59.1591C110.463 59.1591 109.55 58.9223 108.743 58.4489C107.94 57.9716 107.304 57.2879 106.834 56.3977C106.368 55.5038 106.135 54.4318 106.135 53.1818C106.135 51.928 106.368 50.8561 106.834 49.9659C107.304 49.072 107.94 48.3883 108.743 47.9148C109.55 47.4413 110.463 47.2045 111.482 47.2045C112.501 47.2045 113.412 47.4413 114.215 47.9148C115.022 48.3883 115.658 49.072 116.124 49.9659C116.594 50.8561 116.829 51.928 116.829 53.1818ZM114.709 53.1818C114.709 52.2992 114.571 51.5549 114.294 50.9489C114.022 50.339 113.643 49.8788 113.158 49.5682C112.673 49.2538 112.115 49.0966 111.482 49.0966C110.849 49.0966 110.291 49.2538 109.806 49.5682C109.321 49.8788 108.94 50.339 108.664 50.9489C108.391 51.5549 108.255 52.2992 108.255 53.1818C108.255 54.0644 108.391 54.8106 108.664 55.4205C108.94 56.0265 109.321 56.4867 109.806 56.8011C110.291 57.1117 110.849 57.267 111.482 57.267C112.115 57.267 112.673 57.1117 113.158 56.8011C113.643 56.4867 114.022 56.0265 114.294 55.4205C114.571 54.8106 114.709 54.0644 114.709 53.1818Z" fill="white"/>
</g>
<defs>
<clipPath id="clip0_400_22">
<rect width="117.877" height="60" fill="white"/>
</clipPath>
</defs>
</svg>
