<svg id="Layer_1" data-name="Layer 1" xmlns="http://www.w3.org/2000/svg" xmlns:xlink="http://www.w3.org/1999/xlink" viewBox="0 0 394.5 41"><defs><clipPath id="clip-path" transform="translate(-5 -5.9)"><rect x="-80" y="-395.9" width="595.3" height="841.89" style="fill:none"/></clipPath></defs><title>Lovery Talkslogo2023615</title><g style="clip-path:url(#clip-path)"><g style="clip-path:url(#clip-path)"><path d="M5,10.1A2.9,2.9,0,0,1,7.8,7.2h3.8a2.9,2.9,0,0,1,2.8,2.9V34.7a2.9,2.9,0,0,0,2.8,2.9H28.3a2.8,2.8,0,0,1,2.8,2.8v2.4a2.9,2.9,0,0,1-2.8,2.8H7.8A2.9,2.9,0,0,1,5,42.8Z" transform="translate(-5 -5.9)" style="fill:#d26ba5"/><path d="M56.7,5.9c12.1,0,20.7,9.1,20.7,20.5S68.8,46.9,56.7,46.9,36,37.9,36,26.4,44.5,5.9,56.7,5.9m0,32.1c6.8,0,11.1-5.1,11.1-11.6S63.5,14.8,56.7,14.8,45.6,20,45.6,26.4,49.9,38,56.7,38" transform="translate(-5 -5.9)" style="fill:#d26ba5"/><path d="M82.6,9.8a1.7,1.7,0,0,1,1.7-2.6h4.1a4.7,4.7,0,0,1,4,2.6l5.5,13.3c.6,1.4,1.6,1.4,2.2,0l5.6-13.3a4.6,4.6,0,0,1,3.9-2.6h4.1a1.7,1.7,0,0,1,1.7,2.6L100.7,44.3c-.6,1.4-1.4,2.6-1.7,2.6s-1.1-1.2-1.7-2.6Z" transform="translate(-5 -5.9)" style="fill:#d26ba5"/><path d="M120.3,10.1a2.8,2.8,0,0,1,2.8-2.9h19.7a2.9,2.9,0,0,1,2.9,2.9v2.6a2.8,2.8,0,0,1-2.9,2.8H132.5a2.8,2.8,0,0,0-2.8,2.9v1.2a2.8,2.8,0,0,0,2.8,2.9h9.1a2.7,2.7,0,0,1,2.8,2.8v2.5a2.7,2.7,0,0,1-2.8,2.8h-9.1a2.8,2.8,0,0,0-2.8,2.9v1.2a2.8,2.8,0,0,0,2.8,2.9h11a2.8,2.8,0,0,1,2.9,2.8v2.4a2.9,2.9,0,0,1-2.9,2.8H123.1a2.8,2.8,0,0,1-2.8-2.8Z" transform="translate(-5 -5.9)" style="fill:#d26ba5"/><path d="M150.9,10.1a2.9,2.9,0,0,1,2.8-2.9h3.8a2.9,2.9,0,0,1,2.8,2.9V34.7a2.9,2.9,0,0,0,2.9,2.9h11a2.8,2.8,0,0,1,2.8,2.8v2.4a2.9,2.9,0,0,1-2.8,2.8H153.7a2.9,2.9,0,0,1-2.8-2.8Z" transform="translate(-5 -5.9)" style="fill:#d26ba5"/><path d="M193.2,29.9a10.6,10.6,0,0,0-1.6-5.2L181.2,9.6c-.9-1.3-.3-2.4,1.2-2.4h5a6.1,6.1,0,0,1,4.4,2.4l4.5,6.8a1.8,1.8,0,0,0,3.2,0L204,9.6a6.1,6.1,0,0,1,4.5-2.4h4.9c1.5,0,2.1,1.1,1.2,2.4L204.2,24.7a10.6,10.6,0,0,0-1.6,5.2V42.8a2.9,2.9,0,0,1-2.9,2.8H196a2.9,2.9,0,0,1-2.8-2.8Z" transform="translate(-5 -5.9)" style="fill:#d26ba5"/><path d="M243.8,18.4a2.8,2.8,0,0,0-2.8-2.9h-2.9a2.7,2.7,0,0,1-2.8-2.8V10.1a2.8,2.8,0,0,1,2.8-2.9h21.1a2.9,2.9,0,0,1,2.8,2.9v2.6a2.8,2.8,0,0,1-2.8,2.8h-3.1a2.9,2.9,0,0,0-2.8,2.9V42.8a2.9,2.9,0,0,1-2.8,2.8h-3.8a2.9,2.9,0,0,1-2.9-2.8Z" transform="translate(-5 -5.9)" style="fill:#d26ba5"/><path d="M281.8,8.5c.7-1.4,1.6-2.6,2-2.6s1.4,1.2,2.1,2.6l16.4,34.6a1.7,1.7,0,0,1-1.7,2.5h-4.4a4.4,4.4,0,0,1-3.8-2c-.5-1.1-2.2-1.9-3.8-1.9h-9.5c-1.5,0-3.2.8-3.7,1.9a4.5,4.5,0,0,1-3.8,2h-4.5a1.6,1.6,0,0,1-1.6-2.5Zm3.6,26.4a1.7,1.7,0,0,0,1.7-2.5L285,27.8l-1.2-2.6a26.7,26.7,0,0,0-1.3,2.6l-2.1,4.6a1.7,1.7,0,0,0,1.7,2.5Z" transform="translate(-5 -5.9)" style="fill:#d26ba5"/><path d="M307.6,10.1a2.9,2.9,0,0,1,2.8-2.9h3.8a2.9,2.9,0,0,1,2.8,2.9V34.7a2.9,2.9,0,0,0,2.8,2.9h11.1a2.8,2.8,0,0,1,2.8,2.8v2.4a2.9,2.9,0,0,1-2.8,2.8H310.4a2.9,2.9,0,0,1-2.8-2.8Z" transform="translate(-5 -5.9)" style="fill:#d26ba5"/><path d="M338.2,10.1a2.9,2.9,0,0,1,2.9-2.9h3.7a2.8,2.8,0,0,1,2.8,2.9V21.5c0,1.6.1,2.9.1,2.9s.8-1.1,1.6-2.4l8-12.4a5.8,5.8,0,0,1,4.4-2.4h4.7c1.5,0,2.1,1.1,1.1,2.3l-9.8,13.7a4.3,4.3,0,0,0-.1,4.6l10.7,15.5c.9,1.3.3,2.3-1.2,2.3h-4.7a5.9,5.9,0,0,1-4.4-2.4l-8.7-13.8L347.7,27s-.1,1.3-.1,2.8v13a2.8,2.8,0,0,1-2.8,2.8h-3.7a2.9,2.9,0,0,1-2.9-2.8Z" transform="translate(-5 -5.9)" style="fill:#d26ba5"/><path d="M379.7,34.4a4.9,4.9,0,0,1,4,2.5,2.8,2.8,0,0,0,2.8,1.5c2.4,0,3.8-1.4,3.8-3.3s-4.2-4.1-4.2-4.1a25.7,25.7,0,0,1-5.2-2.1s-7.5-3.9-7.5-10.5a12.8,12.8,0,0,1,13-12.5c8.5,0,12.1,9.9,12.1,9.9a1.9,1.9,0,0,1-1.9,2.7h-3.1a4.2,4.2,0,0,1-3.8-2.7s-.4-1.3-3-1.3-4.1,1.2-4.1,3.7,4.1,3.8,4.1,3.8a20.7,20.7,0,0,1,5.2,2s7.6,4.5,7.6,10.5-5.8,12.4-13,12.4S374.4,37,374.4,37a1.8,1.8,0,0,1,1.8-2.6Z" transform="translate(-5 -5.9)" style="fill:#d26ba5"/></g></g></svg>