<svg id="Layer_1" data-name="Layer 1" xmlns="http://www.w3.org/2000/svg" xmlns:xlink="http://www.w3.org/1999/xlink" viewBox="0 0 234 114"><defs><clipPath id="clip-path"><rect x="-26.8" y="-682.9" width="595.3" height="841.89" style="fill:none"/></clipPath></defs><title>Lovery Talkslogo20230608</title><g style="clip-path:url(#clip-path)"><path d="M15.2,19.7A2.8,2.8,0,0,1,18,16.9h3.7a2.9,2.9,0,0,1,2.9,2.8V44.4a2.7,2.7,0,0,0,2.8,2.8h11a2.9,2.9,0,0,1,2.9,2.9v2.4a2.9,2.9,0,0,1-2.9,2.8H18a2.8,2.8,0,0,1-2.8-2.8Z" style="fill:#cf6fac"/><path d="M66.9,15.6c12.1,0,20.6,9.1,20.6,20.5S79,56.6,66.9,56.6s-20.7-9-20.7-20.5,8.5-20.5,20.7-20.5m0,32.1c6.8,0,11.1-5.1,11.1-11.6S73.7,24.5,66.9,24.5,55.7,29.6,55.7,36.1,60,47.7,66.9,47.7" style="fill:#cf6fac"/><path d="M92.8,19.5c-.7-1.4.1-2.6,1.7-2.6h4.1a4.6,4.6,0,0,1,3.9,2.6l5.6,13.3c.6,1.4,1.6,1.4,2.2,0l5.5-13.3a4.7,4.7,0,0,1,4-2.6h4.1a1.7,1.7,0,0,1,1.7,2.6L110.9,54c-.6,1.4-1.4,2.6-1.7,2.6s-1.1-1.2-1.7-2.6Z" style="fill:#cf6fac"/><path d="M130.4,19.7a2.9,2.9,0,0,1,2.9-2.8H153a2.8,2.8,0,0,1,2.8,2.8v2.7a2.7,2.7,0,0,1-2.8,2.8H142.7a2.9,2.9,0,0,0-2.9,2.9v1.2a2.8,2.8,0,0,0,2.9,2.8h9.1a2.9,2.9,0,0,1,2.8,2.9v2.5a2.8,2.8,0,0,1-2.8,2.8h-9.1a2.9,2.9,0,0,0-2.9,2.9v1.2a2.8,2.8,0,0,0,2.9,2.8h11a2.8,2.8,0,0,1,2.8,2.9v2.4a2.8,2.8,0,0,1-2.8,2.8H133.3a2.9,2.9,0,0,1-2.9-2.8Z" style="fill:#cf6fac"/><path d="M161.1,19.7a2.9,2.9,0,0,1,2.8-2.8h3.8a2.9,2.9,0,0,1,2.8,2.8V44.4a2.8,2.8,0,0,0,2.8,2.8h11.1a2.9,2.9,0,0,1,2.8,2.9v2.4a2.9,2.9,0,0,1-2.8,2.8H163.9a2.9,2.9,0,0,1-2.8-2.8Z" style="fill:#cf6fac"/><path d="M203.4,39.6a10.6,10.6,0,0,0-1.6-5.2L191.4,19.2c-.9-1.2-.4-2.3,1.2-2.3h4.9a6.1,6.1,0,0,1,4.5,2.4l4.5,6.8a1.7,1.7,0,0,0,3.1,0l4.6-6.8a6.1,6.1,0,0,1,4.4-2.4h4.9c1.6,0,2.1,1.1,1.3,2.3L214.3,34.4a11.7,11.7,0,0,0-1.6,5.2V52.5a2.8,2.8,0,0,1-2.8,2.8h-3.7a2.9,2.9,0,0,1-2.8-2.8Z" style="fill:#cf6fac"/><path d="M44.6,76.2a2.9,2.9,0,0,0-2.8-2.9H38.9A2.9,2.9,0,0,1,36,70.5V67.8A2.9,2.9,0,0,1,38.9,65h21a2.9,2.9,0,0,1,2.9,2.8v2.7a2.9,2.9,0,0,1-2.9,2.8h-3a2.8,2.8,0,0,0-2.8,2.9v24.4a2.9,2.9,0,0,1-2.9,2.8H47.4a2.9,2.9,0,0,1-2.8-2.8Z" style="fill:#cf6fac"/><path d="M82.6,66.3c.6-1.4,1.5-2.6,2-2.6s1.4,1.2,2,2.6L103,100.8a1.7,1.7,0,0,1-1.6,2.6H97a4.4,4.4,0,0,1-3.8-2,4.7,4.7,0,0,0-3.8-2H79.9a4.4,4.4,0,0,0-3.8,2,4.3,4.3,0,0,1-3.7,2H67.9a1.7,1.7,0,0,1-1.6-2.6Zm3.6,26.4a1.7,1.7,0,0,0,1.6-2.6l-2-4.5A17.4,17.4,0,0,0,84.5,83a26.8,26.8,0,0,0-1.2,2.6l-2.1,4.5a1.7,1.7,0,0,0,1.6,2.6Z" style="fill:#cf6fac"/><path d="M108.3,67.8a2.9,2.9,0,0,1,2.9-2.8h3.7a2.9,2.9,0,0,1,2.9,2.8V92.5a2.7,2.7,0,0,0,2.8,2.8h11a2.9,2.9,0,0,1,2.9,2.9v2.4a2.9,2.9,0,0,1-2.9,2.8H111.2a2.9,2.9,0,0,1-2.9-2.8Z" style="fill:#cf6fac"/><path d="M139,67.8a2.9,2.9,0,0,1,2.8-2.8h3.8a2.9,2.9,0,0,1,2.8,2.8V79.3a13.7,13.7,0,0,0,.1,2.8l1.6-2.3,8-12.4a5.8,5.8,0,0,1,4.3-2.4h4.7c1.6,0,2.1,1,1.2,2.3l-9.8,13.6a4.2,4.2,0,0,0-.1,4.7l10.7,15.5c.9,1.2.3,2.3-1.3,2.3h-4.7a5.8,5.8,0,0,1-4.3-2.4L150,87.2l-1.5-2.4a13.7,13.7,0,0,0-.1,2.8v13a2.9,2.9,0,0,1-2.8,2.8h-3.8a2.9,2.9,0,0,1-2.8-2.8Z" style="fill:#cf6fac"/><path d="M180.5,92.1a4.7,4.7,0,0,1,3.9,2.6,3.1,3.1,0,0,0,2.9,1.5c2.3,0,3.8-1.4,3.8-3.4s-4.2-4-4.2-4a33.3,33.3,0,0,1-5.2-2.1s-7.6-4-7.6-10.6,5.9-12.4,13.1-12.4,12.1,9.9,12.1,9.9a1.9,1.9,0,0,1-1.9,2.7h-3.2a4.2,4.2,0,0,1-3.7-2.7s-.4-1.3-3.1-1.3a3.7,3.7,0,0,0-4,3.7c0,2.9,4,3.8,4,3.8a18.1,18.1,0,0,1,5.2,2s7.6,4.4,7.6,10.5a12.7,12.7,0,0,1-12.9,12.4c-8.4,0-12.2-9.9-12.2-9.9a1.9,1.9,0,0,1,1.9-2.7Z" style="fill:#cf6fac"/></g></svg>