<svg id="Layer_1" data-name="Layer 1" xmlns="http://www.w3.org/2000/svg" xmlns:xlink="http://www.w3.org/1999/xlink" viewBox="0 0 409 65"><defs><clipPath id="clip-path"><rect x="-8.6" y="-355.9" width="595.3" height="841.89" style="fill:none"/></clipPath></defs><title>Lovery Talkslogo20230608</title><g style="clip-path:url(#clip-path)"><path d="M8.6,18.4a2.9,2.9,0,0,1,2.8-2.8h3.8A2.9,2.9,0,0,1,18,18.4V43.1a2.9,2.9,0,0,0,2.8,2.8H31.9a2.9,2.9,0,0,1,2.8,2.9v2.3A2.9,2.9,0,0,1,31.9,54H11.4a2.9,2.9,0,0,1-2.8-2.9Z" style="fill:#cf6fac"/><path d="M60.3,14.3c12.1,0,20.7,9,20.7,20.5S72.4,55.3,60.3,55.3,39.6,46.2,39.6,34.8s8.5-20.5,20.7-20.5m0,32.1c6.8,0,11.1-5.2,11.1-11.6S67.1,23.2,60.3,23.2,49.2,28.3,49.2,34.8s4.2,11.6,11.1,11.6" style="fill:#cf6fac"/><path d="M86.2,18.2a1.7,1.7,0,0,1,1.7-2.6H92a4.6,4.6,0,0,1,3.9,2.6l5.6,13.3c.6,1.4,1.6,1.4,2.2,0l5.5-13.3a4.7,4.7,0,0,1,4-2.6h4.1a1.7,1.7,0,0,1,1.7,2.6L104.3,52.7c-.6,1.4-1.4,2.6-1.7,2.6s-1.1-1.2-1.7-2.6Z" style="fill:#cf6fac"/><path d="M123.8,18.4a2.9,2.9,0,0,1,2.9-2.8h19.7a2.8,2.8,0,0,1,2.8,2.8v2.7a2.8,2.8,0,0,1-2.8,2.8H136.1a2.8,2.8,0,0,0-2.8,2.8V28a2.8,2.8,0,0,0,2.8,2.8h9.1a2.8,2.8,0,0,1,2.8,2.8v2.6a2.8,2.8,0,0,1-2.8,2.8h-9.1a2.8,2.8,0,0,0-2.8,2.8v1.3a2.8,2.8,0,0,0,2.8,2.8h11a2.9,2.9,0,0,1,2.9,2.9v2.3a2.9,2.9,0,0,1-2.9,2.9H126.7a2.9,2.9,0,0,1-2.9-2.9Z" style="fill:#cf6fac"/><path d="M154.5,18.4a2.9,2.9,0,0,1,2.8-2.8h3.8a2.9,2.9,0,0,1,2.8,2.8V43.1a2.9,2.9,0,0,0,2.8,2.8h11.1a2.9,2.9,0,0,1,2.8,2.9v2.3a2.9,2.9,0,0,1-2.8,2.9H157.3a2.9,2.9,0,0,1-2.8-2.9Z" style="fill:#cf6fac"/><path d="M196.8,38.3a10.6,10.6,0,0,0-1.6-5.2L184.8,17.9c-.9-1.3-.4-2.3,1.2-2.3h5a6,6,0,0,1,4.4,2.3l4.5,6.8a1.8,1.8,0,0,0,3.2,0l4.5-6.8a6,6,0,0,1,4.5-2.3h4.8c1.6,0,2.2,1,1.3,2.3L207.8,33.1a10.7,10.7,0,0,0-1.7,5.2V51.1a2.8,2.8,0,0,1-2.8,2.9h-3.7a2.9,2.9,0,0,1-2.8-2.9Z" style="fill:#cf6fac"/><path d="M247.4,26.7a2.9,2.9,0,0,0-2.8-2.8h-2.9a2.9,2.9,0,0,1-2.9-2.8V18.4a2.9,2.9,0,0,1,2.9-2.8h21.1a2.9,2.9,0,0,1,2.8,2.8v2.7a2.9,2.9,0,0,1-2.8,2.8h-3.1a2.9,2.9,0,0,0-2.8,2.8V51.1a2.9,2.9,0,0,1-2.8,2.9h-3.8a2.9,2.9,0,0,1-2.9-2.9Z" style="fill:#cf6fac"/><path d="M285.4,16.9c.6-1.4,1.6-2.6,2-2.6s1.4,1.2,2.1,2.6l16.4,34.5a1.7,1.7,0,0,1-1.7,2.6h-4.4a4.4,4.4,0,0,1-3.8-2,4.4,4.4,0,0,0-3.8-2h-9.5a4.5,4.5,0,0,0-3.8,2,4.3,4.3,0,0,1-3.7,2h-4.5a1.7,1.7,0,0,1-1.6-2.6ZM289,43.3a1.7,1.7,0,0,0,1.7-2.6l-2.1-4.6c-.6-1.4-1.2-2.5-1.2-2.5a19.5,19.5,0,0,0-1.3,2.5L284,40.7c-.7,1.4.1,2.6,1.7,2.6Z" style="fill:#cf6fac"/><path d="M311.2,18.4a2.8,2.8,0,0,1,2.8-2.8h3.7a2.9,2.9,0,0,1,2.9,2.8V43.1a2.9,2.9,0,0,0,2.8,2.8h11a2.9,2.9,0,0,1,2.9,2.9v2.3a2.9,2.9,0,0,1-2.9,2.9H314a2.8,2.8,0,0,1-2.8-2.9Z" style="fill:#cf6fac"/><path d="M341.8,18.4a2.9,2.9,0,0,1,2.9-2.8h3.7a2.8,2.8,0,0,1,2.8,2.8V29.9c0,1.6.1,2.8.1,2.8a25.5,25.5,0,0,0,1.6-2.3l8-12.4a5.8,5.8,0,0,1,4.4-2.4H370c1.5,0,2.1,1,1.1,2.3l-9.8,13.6a4.4,4.4,0,0,0-.1,4.7l10.7,15.4c.9,1.3.3,2.4-1.2,2.4H366a5.9,5.9,0,0,1-4.4-2.4l-8.7-13.8-1.6-2.4s-.1,1.2-.1,2.8V51.1a2.8,2.8,0,0,1-2.8,2.9h-3.7a2.9,2.9,0,0,1-2.9-2.9Z" style="fill:#cf6fac"/><path d="M383.3,42.7a5,5,0,0,1,4,2.6,2.9,2.9,0,0,0,2.8,1.4c2.3,0,3.8-1.3,3.8-3.3s-4.2-4-4.2-4a33.3,33.3,0,0,1-5.2-2.1s-7.5-4-7.5-10.6,5.8-12.4,13-12.4,12.1,9.9,12.1,9.9a1.8,1.8,0,0,1-1.9,2.6h-3.1a4.3,4.3,0,0,1-3.8-2.6s-.4-1.3-3-1.3-4.1,1.2-4.1,3.7,4.1,3.7,4.1,3.7a25.7,25.7,0,0,1,5.2,2.1s7.6,4.4,7.6,10.4a12.8,12.8,0,0,1-13,12.5c-8.4,0-12.1-9.9-12.1-9.9a1.8,1.8,0,0,1,1.8-2.7Z" style="fill:#cf6fac"/></g></svg>