<svg width="148" height="21" viewBox="0 0 148 21" fill="none" xmlns="http://www.w3.org/2000/svg">
<path d="M17.4873 17.5637C17.5636 17.4873 17.64 17.3727 17.7545 17.2964C18.2891 16.6855 18.9382 15.8073 19.3582 14.8146C19.4345 14.6618 19.4727 14.4709 19.5491 14.3182C19.5873 14.1655 19.6254 14.0127 19.7018 13.86C19.74 13.7837 19.74 13.6691 19.7782 13.5927C19.8927 13.0964 19.9691 12.6 20.0454 12.18C20.0454 12.1037 20.0454 12.0273 20.0836 11.9891C20.0836 11.9509 20.0836 11.9127 20.0836 11.8746C20.0836 11.8364 20.0836 11.7982 20.0836 11.7982C20.0836 11.76 20.0836 11.76 20.0836 11.7218C20.0836 11.6455 20.0836 11.6073 20.0836 11.5691C20.0836 11.5309 20.0836 11.4927 20.0836 11.4927L17.4873 17.5637ZM19.5873 10.5382C17.8309 10.5382 13.1727 10.5382 11.4927 10.5C11.1873 10.5 10.92 10.7673 10.92 11.0727V13.86C10.92 13.86 14.8527 13.86 15.3491 13.86C14.8145 14.7 14.0891 15.1582 13.1727 15.7309C12.3327 16.1891 11.2636 16.4564 10.1563 16.4564C9.31635 16.4564 8.55271 16.3037 7.82726 15.9982C7.1018 15.6927 6.49089 15.2727 5.95635 14.7382C5.4218 14.2037 5.0018 13.5546 4.69635 12.8291C4.5818 12.6 4.50544 12.3709 4.46726 12.1418H0.15271C0.267255 12.9818 0.496346 13.7455 0.801801 14.4709C1.33635 15.6927 2.0618 16.7618 2.97816 17.7164C3.89453 18.6327 5.0018 19.3582 6.22362 19.8927C7.44544 20.4273 8.7818 20.6946 10.1563 20.6946C11.1109 20.6946 12.0273 20.58 12.9054 20.3127C13.7836 20.0455 14.6236 19.7018 15.3873 19.2437C16.1509 18.7855 16.8382 18.2127 17.4873 17.5637C17.5636 17.4873 17.64 17.3727 17.7545 17.2964C18.2891 16.7237 18.9 15.9218 19.3582 14.8146C19.4345 14.6618 19.4727 14.4709 19.5491 14.3182C19.5873 14.1655 19.6254 14.0127 19.7018 13.86C19.74 13.7837 19.74 13.6691 19.7782 13.5927C19.8927 13.0964 19.9691 12.6 20.0454 12.18C20.0454 12.1037 20.0454 12.0273 20.0836 11.9891C20.0836 11.9509 20.0836 11.9127 20.0836 11.8746C20.0836 11.8364 20.0836 11.7982 20.0836 11.7982C20.0836 11.76 20.0836 11.76 20.0836 11.7218C20.0836 11.6455 20.0836 11.6073 20.0836 11.5691C20.0836 11.5309 20.0836 11.4927 20.0836 11.4927C20.0836 11.3782 20.1218 11.3018 20.1218 11.1873C20.1982 10.8437 19.9309 10.5382 19.5873 10.5382ZM18.7091 5.00184C18.3273 4.42911 17.9454 3.93275 17.4491 3.47456C16.8382 2.82547 16.1509 2.29093 15.3873 1.83275C14.6236 1.37456 13.8218 1.03093 12.9436 0.763654C12.0654 0.496381 11.1491 0.381836 10.1945 0.381836C8.7818 0.381836 7.48362 0.649109 6.2618 1.18365C5.03998 1.7182 3.97089 2.44365 3.01635 3.36002C2.09998 4.27638 1.37453 5.34547 0.839983 6.60547C0.496346 7.36911 0.267255 8.17093 0.15271 9.01093H4.42907C4.50544 8.74365 4.5818 8.47638 4.69635 8.20911C5.0018 7.48365 5.4218 6.87275 5.95635 6.3382C6.49089 5.80365 7.1018 5.38365 7.82726 5.0782C8.55271 4.77274 9.31635 4.62002 10.1563 4.62002C11.2254 4.62002 12.2182 4.88729 13.1345 5.42184C13.8982 5.88002 14.5091 6.41456 14.9673 7.10184C15.12 7.33093 15.4254 7.40729 15.6927 7.29275C15.96 7.14002 16.1891 7.02547 16.38 6.94911C16.6854 6.79638 16.9527 6.68184 17.1818 6.56729C17.4491 6.45275 17.6782 6.30002 17.9454 6.18547L18.48 5.88002C18.7854 5.65093 18.9 5.26911 18.7091 5.00184Z" fill="white"/>
<path d="M35.3945 19.8164C34.1727 19.2818 33.1036 18.5564 32.1873 17.64C31.8436 17.2964 31.5382 16.9527 31.2709 16.6091H26.3073V1.22184C26.3073 0.916382 26.04 0.649109 25.7345 0.649109H22.6418C22.3364 0.649109 22.0691 0.916382 22.0691 1.22184V19.6637C22.0691 19.9691 22.3364 20.2364 22.6418 20.2364H36.3491V20.16C36.0436 20.0837 35.7 19.9691 35.3945 19.8164Z" fill="white"/>
<path d="M45.2836 10.4618C45.2836 11.3018 45.1309 12.0655 44.8255 12.7909C44.52 13.5164 44.1 14.1273 43.5655 14.7C43.0309 15.2346 42.3818 15.6546 41.6945 15.9982C40.9691 16.3037 40.2055 16.4946 39.4036 16.4946C38.5636 16.4946 37.8 16.3418 37.0745 15.9982C36.3491 15.6927 35.7382 15.2346 35.1655 14.7C34.6309 14.1655 34.2109 13.5164 33.8673 12.7909C33.5618 12.0655 33.3709 11.3018 33.3709 10.4618C33.3709 9.62184 33.5236 8.8582 33.8673 8.13274C34.1727 7.40729 34.6309 6.7582 35.1655 6.22365C35.7 5.68911 36.3491 5.23093 37.0745 4.92547C37.8 4.62002 38.5636 4.42911 39.4036 4.42911C40.2436 4.42911 41.0073 4.58183 41.6945 4.92547C42.42 5.23093 43.0309 5.68911 43.5655 6.22365C44.1 6.7582 44.52 7.40729 44.8255 8.13274C45.1309 8.8582 45.2836 9.66002 45.2836 10.4618Z" fill="#FF8636"/>
<path d="M63.5727 11.5309C62.9618 10.6527 62.0836 10.0418 60.8618 9.69819C61.74 9.27819 62.3891 8.74365 62.8473 8.05637C63.3054 7.3691 63.5345 6.56728 63.5345 5.57456C63.5345 4.65819 63.3818 3.89456 63.0764 3.28365C62.7709 2.67274 62.3509 2.17637 61.8163 1.79455C61.2818 1.41274 60.5945 1.14546 59.8309 0.992737C59.0673 0.84001 58.1891 0.725464 57.2727 0.725464H48.6054C48.3 0.725464 48.0327 0.992737 48.0327 1.29819V5.19274C48.3 5.61274 48.4909 6.03274 48.72 6.49092C49.2545 7.71274 49.5218 9.0491 49.5218 10.4618C49.5218 11.8746 49.2545 13.2109 48.72 14.4327C48.5291 14.8909 48.3 15.3109 48.0327 15.7309V19.8164C48.0327 20.1218 48.3 20.3891 48.6054 20.3891H57.54C58.4182 20.3891 59.2582 20.2746 60.0982 20.0455C60.9382 19.8164 61.6636 19.4727 62.3127 19.0146C62.9618 18.5564 63.4964 17.9455 63.8782 17.2582C64.26 16.5327 64.4509 15.6927 64.4509 14.7C64.4891 13.44 64.1836 12.4091 63.5727 11.5309ZM52.3473 4.08546H56.3945C56.7763 4.08546 57.1582 4.12365 57.5018 4.20001C57.8454 4.27637 58.1891 4.39092 58.4564 4.54365C58.7236 4.69637 58.9527 4.92546 59.1054 5.23092C59.2582 5.53637 59.3727 5.91819 59.3727 6.37637C59.3727 7.21637 59.1054 7.7891 58.6091 8.17092C58.1127 8.55274 57.4636 8.70546 56.7 8.70546H52.3091V4.08546H52.3473ZM59.9073 15.6927C59.7163 16.0364 59.4873 16.2655 59.22 16.4564C58.9145 16.6473 58.5709 16.8 58.1891 16.8764C57.8073 16.9527 57.3873 16.9909 56.9673 16.9909H52.3473V11.6455H57.0436C57.9982 11.6455 58.7236 11.8746 59.2964 12.2946C59.8691 12.7146 60.1364 13.44 60.1364 14.4709C60.1745 14.9291 60.06 15.3491 59.9073 15.6927Z" fill="white"/>
<path d="M66.8564 0.725464H70.0254C70.3309 0.725464 70.5982 0.992737 70.5982 1.29819V19.7782C70.5982 20.0836 70.3309 20.3509 70.0254 20.3509H66.8564C66.5509 20.3509 66.2836 20.0836 66.2836 19.7782V1.29819C66.2836 0.992737 66.5509 0.725464 66.8564 0.725464Z" fill="white"/>
<path d="M78.7309 4.39091L73.08 4.42909C72.7745 4.42909 72.5073 4.16182 72.5073 3.85636V1.37455C72.5073 1.06909 72.7745 0.801819 73.08 0.801819H88.6582C88.9636 0.801819 89.2309 1.06909 89.2309 1.37455V3.81818C89.2309 4.12364 88.9636 4.39091 88.6582 4.39091L83.0454 4.35273V19.7782C83.0454 20.0836 82.7782 20.3509 82.4727 20.3509H79.3036C78.9982 20.3509 78.7309 20.0836 78.7309 19.7782V4.39091Z" fill="white"/>
<path d="M93.4236 13.86C93.7291 13.86 93.9582 14.0891 93.9963 14.3946C94.0345 14.8527 94.1491 15.2346 94.34 15.54C94.5691 15.9982 94.9127 16.38 95.2945 16.6473C95.6763 16.9146 96.1345 17.1436 96.6691 17.2964C97.2036 17.4491 97.7382 17.4873 98.3491 17.4873C98.7309 17.4873 99.1509 17.4491 99.5709 17.3727C99.9909 17.2964 100.411 17.1818 100.793 16.9909C101.175 16.8 101.48 16.5709 101.747 16.2273C102.015 15.9218 102.129 15.5018 102.129 15.0055C102.129 14.4709 101.976 14.0509 101.633 13.7073C101.289 13.3636 100.831 13.0964 100.296 12.8673C99.7618 12.6382 99.1127 12.4473 98.4254 12.2945C97.7382 12.1418 97.0127 11.9509 96.3254 11.76C95.6 11.5691 94.8745 11.34 94.1873 11.0727C93.5 10.8055 92.8509 10.4618 92.3163 10.0418C91.7818 9.62182 91.3236 9.08728 90.98 8.47637C90.6363 7.86546 90.4836 7.10182 90.4836 6.18546C90.4836 5.19273 90.7127 4.31455 91.1327 3.55091C91.5527 2.82546 92.1254 2.17637 92.8127 1.68C93.5 1.18364 94.3018 0.801823 95.18 0.572732C96.0582 0.343641 96.9363 0.229095 97.8145 0.229095C98.8454 0.229095 99.8382 0.343641 100.755 0.572732C101.709 0.801823 102.549 1.18364 103.275 1.68C104 2.17637 104.573 2.86364 105.031 3.62728C105.375 4.27637 105.604 5.04 105.642 5.91819C105.68 6.26182 105.413 6.5291 105.069 6.5291H102.015C101.747 6.5291 101.48 6.33819 101.442 6.03273C101.365 5.65091 101.289 5.34546 101.136 5.07819C100.907 4.69637 100.64 4.39091 100.296 4.16182C99.9527 3.93273 99.5327 3.78 99.0745 3.70364C98.6163 3.62728 98.12 3.55091 97.6236 3.55091C97.28 3.55091 96.9363 3.5891 96.5927 3.66546C96.2491 3.74182 95.9436 3.85637 95.6382 4.04728C95.3709 4.23819 95.1036 4.46728 94.9509 4.73455C94.76 5.00182 94.6836 5.34546 94.6836 5.76546C94.6836 6.14728 94.76 6.45273 94.9127 6.68182C95.0654 6.91091 95.3327 7.14 95.7909 7.33091C96.2109 7.52182 96.8218 7.71273 97.5854 7.94182C98.3491 8.17091 99.3418 8.4 100.564 8.74364C100.793 8.78182 101.098 8.85819 101.48 8.97273C101.862 9.08728 102.282 9.20182 102.702 9.39273C103.122 9.58364 103.58 9.77455 104 10.08C104.42 10.3473 104.84 10.6909 105.184 11.1109C105.527 11.5309 105.833 11.9891 106.062 12.5618C106.291 13.1346 106.405 13.7836 106.405 14.5091C106.405 15.4255 106.215 16.2273 105.871 17.0291C105.527 17.7927 104.993 18.48 104.305 19.0145C103.618 19.5873 102.778 20.0073 101.747 20.3509C100.716 20.6564 99.5709 20.8473 98.1963 20.8473C97.1273 20.8473 96.0582 20.6945 95.0654 20.4273C94.0345 20.16 93.1563 19.74 92.3927 19.1673C91.6291 18.5946 91.0182 17.8691 90.5218 16.9909C90.14 16.2655 89.9109 15.4255 89.8727 14.4709C89.8727 14.1273 90.1018 13.86 90.4454 13.86H93.4236Z" fill="white"/>
<path d="M121.802 14.8909C121.725 14.7382 121.687 14.6236 121.649 14.4709C121.267 14.8909 120.809 15.2346 120.313 15.54C119.396 16.0746 118.404 16.3418 117.296 16.3036C116.495 16.3036 115.731 16.1127 115.044 15.8073C114.356 15.5018 113.745 15.0436 113.211 14.5091C112.676 13.9746 112.295 13.3255 111.989 12.6382C111.684 11.9127 111.569 11.1873 111.569 10.3473C111.607 9.54546 111.76 8.82001 112.065 8.09455C112.371 7.3691 112.829 6.75819 113.364 6.26182C113.898 5.76546 114.547 5.34546 115.235 5.04001C115.96 4.73455 116.724 4.62001 117.525 4.62001C118.595 4.65819 119.549 4.92546 120.427 5.46001C120.885 5.76546 121.305 6.07092 121.649 6.45273C121.687 6.30001 121.764 6.14728 121.84 5.99455C122.298 4.96364 122.871 4.0091 123.558 3.1691C123.711 2.97819 123.673 2.71092 123.52 2.59637C123.253 2.40546 122.985 2.21455 122.718 2.02364C121.993 1.56546 121.191 1.18364 120.351 0.91637C119.511 0.649097 118.595 0.49637 117.678 0.49637C116.304 0.458188 115.005 0.687279 113.784 1.18364C112.562 1.68001 111.493 2.36728 110.576 3.24546C109.66 4.12364 108.935 5.15455 108.362 6.37637C107.827 7.56001 107.522 8.85819 107.484 10.1946C107.445 11.5691 107.675 12.8673 108.171 14.0891C108.667 15.3109 109.355 16.38 110.233 17.2964C111.111 18.2127 112.142 18.9382 113.325 19.5109C114.509 20.0455 115.807 20.3509 117.182 20.3891C118.136 20.4273 119.053 20.3127 119.969 20.0836C120.847 19.8546 121.687 19.5109 122.451 19.0527C122.833 18.8236 123.215 18.5564 123.558 18.2891C123.749 18.1364 123.749 17.8691 123.596 17.7164C122.871 16.9146 122.26 15.96 121.802 14.8909ZM125.047 14.8146C124.78 14.6618 124.551 14.5473 124.322 14.4327C124.093 14.28 123.825 14.1655 123.558 14.0127C123.52 13.9746 123.482 13.9746 123.444 13.9364C123.596 14.28 123.215 14.6236 122.871 14.4327C123.253 15.3491 123.787 16.1891 124.36 16.9146C124.513 16.7236 124.818 16.7236 124.971 16.9146C125.276 16.5327 125.582 16.1509 125.849 15.6927C125.62 15.5782 125.544 15.3109 125.658 15.12C125.429 15.0055 125.238 14.8909 125.047 14.8146ZM124.665 3.74182C124.665 3.70364 124.665 3.70364 124.665 3.74182C123.902 4.54364 123.329 5.46001 122.871 6.5291C122.833 6.56728 122.833 6.64364 122.795 6.68182C123.138 6.5291 123.482 6.87273 123.367 7.21637C123.444 7.17819 123.52 7.14001 123.558 7.14001C123.864 6.98728 124.131 6.87273 124.36 6.75819C124.589 6.64364 124.856 6.5291 125.124 6.37637C125.315 6.30001 125.505 6.18546 125.773 6.07092C125.658 5.88001 125.735 5.61273 125.964 5.49819C125.582 4.81092 125.162 4.23819 124.665 3.74182Z" fill="white"/>
<path d="M141.58 6.49094C141.045 5.26912 140.32 4.20003 139.404 3.24549C138.487 2.32912 137.418 1.60367 136.158 1.06912C134.936 0.534576 133.6 0.267303 132.225 0.267303C130.813 0.267303 129.515 0.534576 128.255 1.06912C127.033 1.60367 125.964 2.32912 125.047 3.24549C124.895 3.39821 124.78 3.51276 124.665 3.66549C123.94 4.50549 123.329 5.42185 122.909 6.45276C122.756 6.79639 122.642 7.17821 122.527 7.52185C122.26 8.43821 122.107 9.43094 122.107 10.4237C122.107 11.4546 122.26 12.4091 122.527 13.3637C122.642 13.7073 122.756 14.0509 122.909 14.3946C123.367 15.4637 123.978 16.4182 124.704 17.22C124.818 17.3346 124.933 17.4873 125.085 17.6018C126.002 18.5182 127.071 19.2437 128.293 19.7782C129.515 20.3128 130.851 20.58 132.264 20.58C133.676 20.58 134.975 20.3128 136.196 19.7782C137.418 19.2437 138.525 18.5182 139.442 17.6018C140.358 16.6855 141.084 15.6164 141.618 14.3946C142.153 13.1728 142.42 11.8364 142.42 10.4237C142.382 9.04912 142.115 7.75094 141.58 6.49094ZM137.685 12.7909C137.38 13.5164 136.96 14.1273 136.425 14.7C135.891 15.2346 135.242 15.6546 134.555 15.9982C133.829 16.3037 133.065 16.4946 132.225 16.4946C131.385 16.4946 130.622 16.3418 129.896 15.9982C129.171 15.6928 128.522 15.2346 127.987 14.7C127.453 14.1655 127.033 13.5164 126.689 12.7909C126.384 12.0655 126.193 11.3018 126.193 10.4618C126.193 9.62185 126.345 8.85821 126.689 8.13276C126.995 7.4073 127.453 6.75821 127.987 6.22367C128.522 5.68912 129.171 5.23094 129.896 4.92549C130.622 4.62003 131.385 4.42912 132.225 4.42912C133.065 4.42912 133.829 4.58185 134.555 4.92549C135.28 5.23094 135.891 5.68912 136.425 6.22367C136.96 6.75821 137.38 7.4073 137.685 8.13276C137.991 8.85821 138.144 9.62185 138.144 10.4618C138.144 11.3018 137.991 12.0655 137.685 12.7909Z" fill="white"/>
<path d="M141.58 6.49094C141.045 5.26912 140.32 4.20003 139.404 3.24549C138.487 2.32912 137.418 1.60367 136.158 1.06912C134.936 0.534576 133.6 0.267303 132.225 0.267303C130.813 0.267303 129.515 0.534576 128.255 1.06912C127.033 1.60367 125.964 2.32912 125.047 3.24549C124.895 3.39821 124.78 3.51276 124.665 3.66549C123.94 4.50549 123.329 5.42185 122.909 6.45276C122.756 6.79639 122.642 7.17821 122.527 7.52185C122.26 8.43821 122.107 9.43094 122.107 10.4237C122.107 11.4546 122.26 12.4091 122.527 13.3637C122.642 13.7073 122.756 14.0509 122.909 14.3946C123.367 15.4637 123.978 16.4182 124.704 17.22C124.818 17.3346 124.933 17.4873 125.085 17.6018C126.002 18.5182 127.071 19.2437 128.293 19.7782C129.515 20.3128 130.851 20.58 132.264 20.58C133.676 20.58 134.975 20.3128 136.196 19.7782C137.418 19.2437 138.525 18.5182 139.442 17.6018C140.358 16.6855 141.084 15.6164 141.618 14.3946C142.153 13.1728 142.42 11.8364 142.42 10.4237C142.382 9.04912 142.115 7.75094 141.58 6.49094ZM137.685 12.7909C137.38 13.5164 136.96 14.1273 136.425 14.7C135.891 15.2346 135.242 15.6546 134.555 15.9982C133.829 16.3037 133.065 16.4946 132.225 16.4946C131.385 16.4946 130.622 16.3418 129.896 15.9982C129.171 15.6928 128.522 15.2346 127.987 14.7C127.453 14.1655 127.033 13.5164 126.689 12.7909C126.384 12.0655 126.193 11.3018 126.193 10.4618C126.193 9.62185 126.345 8.85821 126.689 8.13276C126.995 7.4073 127.453 6.75821 127.987 6.22367C128.522 5.68912 129.171 5.23094 129.896 4.92549C130.622 4.62003 131.385 4.42912 132.225 4.42912C133.065 4.42912 133.829 4.58185 134.555 4.92549C135.28 5.23094 135.891 5.68912 136.425 6.22367C136.96 6.75821 137.38 7.4073 137.685 8.13276C137.991 8.85821 138.144 9.62185 138.144 10.4618C138.144 11.3018 137.991 12.0655 137.685 12.7909Z" fill="white"/>
</svg>
