<svg width="16" height="16" viewBox="0 0 16 16" fill="none" xmlns="http://www.w3.org/2000/svg">
<g clip-path="url(#clip0)">
<path d="M4.2238 2.87179C4.74973 2.87179 5.17611 2.44526 5.17611 1.91913C5.17611 1.56851 4.7532 0.78107 4.47102 0.294727C4.36089 0.104883 4.08673 0.104883 3.97658 0.294727C3.69442 0.78107 3.27148 1.56851 3.27148 1.91913C3.27148 2.44526 3.69786 2.87179 4.2238 2.87179Z" fill="#4B9DB9"/>
<path d="M7.99919 2.87179C8.52513 2.87179 8.9515 2.44526 8.9515 1.91913C8.9515 1.56851 8.5286 0.78107 8.24641 0.294727C8.13628 0.104883 7.86213 0.104883 7.75197 0.294727C7.46981 0.78107 7.04688 1.56851 7.04688 1.91913C7.04688 2.44526 7.47322 2.87179 7.99919 2.87179Z" fill="#4B9DB9"/>
<path d="M11.7756 2.87179C12.3015 2.87179 12.7279 2.44526 12.7279 1.91913C12.7279 1.56851 12.305 0.78107 12.0228 0.294727C11.9126 0.104883 11.6385 0.104883 11.5283 0.294727C11.2462 0.78107 10.8232 1.56851 10.8232 1.91913C10.8232 2.44526 11.2496 2.87179 11.7756 2.87179Z" fill="#4B9DB9"/>
<path d="M3.7001 3.6543C3.46716 3.6543 3.27832 3.8432 3.27832 4.07623V7.48011H5.1705V4.07627C5.1705 3.84323 4.98169 3.65433 4.74872 3.65433H3.7001V3.6543Z" fill="#4B9DB9"/>
<path d="M7.47549 3.6543C7.24255 3.6543 7.05371 3.8432 7.05371 4.07623V7.48011H8.9459V4.07627C8.9459 3.84323 8.75705 3.65433 8.52412 3.65433H7.47549V3.6543Z" fill="#4B9DB9"/>
<path d="M11.2519 3.6543C11.0189 3.6543 10.8301 3.8432 10.8301 4.07623V7.48011H12.7223V4.07627C12.7223 3.84323 12.5334 3.65433 12.3005 3.65433H11.2519V3.6543Z" fill="#4B9DB9"/>
<path d="M2.07046 11.1281C2.14677 11.1281 2.22487 11.1174 2.30249 11.0944L3.4858 10.7441C3.87259 10.6296 4.27593 10.5723 4.67924 10.5723C5.08256 10.5723 5.4859 10.6296 5.87268 10.7441L6.80668 11.0206C7.19346 11.1351 7.59681 11.1923 8.00012 11.1923C8.40343 11.1923 8.80677 11.1351 9.19356 11.0206L10.1276 10.7441C10.5143 10.6296 10.9177 10.5723 11.321 10.5723C11.7243 10.5723 12.1277 10.6296 12.5144 10.7441L13.6977 11.0944C13.7753 11.1173 13.8535 11.1281 13.9298 11.1281C14.3085 11.1281 14.6419 10.8631 14.6419 10.5111V9.30256C14.6419 8.90193 14.2662 8.57715 13.8029 8.57715H2.1974C1.73402 8.57715 1.3584 8.90193 1.3584 9.30256V10.5111C1.3584 10.8631 1.69184 11.1281 2.07046 11.1281Z" fill="#4B9DB9"/>
<path d="M15.5312 14.91H14.2517V12.0354C14.1463 12.0551 14.0386 12.0655 13.9297 12.0655C13.7612 12.0655 13.5935 12.0412 13.4315 11.9932L12.2482 11.643C11.9497 11.5546 11.6377 11.5098 11.3209 11.5098C11.0041 11.5098 10.6921 11.5546 10.3936 11.643L9.45956 11.9195C8.98812 12.059 8.49709 12.1298 8.00003 12.1298C7.50297 12.1298 7.01191 12.059 6.54047 11.9195L5.60647 11.643C5.30794 11.5546 4.99594 11.5098 4.67916 11.5098C4.36238 11.5098 4.05037 11.5546 3.75184 11.643L2.56853 11.9932C2.40647 12.0412 2.23887 12.0655 2.07037 12.0655C1.96141 12.0655 1.85366 12.0551 1.74834 12.0354V14.9101H0.46875C0.209875 14.9101 0 15.12 0 15.3788C0 15.6377 0.209875 15.8476 0.46875 15.8476H15.5312C15.7901 15.8476 16 15.6377 16 15.3788C16 15.12 15.7901 14.91 15.5312 14.91Z" fill="#4B9DB9"/>
</g>
<defs>
<clipPath id="clip0">
<rect width="16" height="16" fill="white"/>
</clipPath>
</defs>
</svg>