<svg width="88" height="88" viewBox="0 0 88 88" fill="none" xmlns="http://www.w3.org/2000/svg">
<g clip-path="url(#clip0)">
<path d="M48.3033 87.9999H62.9881C63.9383 87.9999 64.7084 87.2304 64.7084 86.2812V77.3481H46.583V86.2812C46.583 87.2304 47.3532 87.9999 48.3033 87.9999Z" fill="#9AC9E3"/>
<path d="M62.9882 7.18359H48.2989C47.3484 7.18359 46.5781 7.95359 46.5786 8.9032L46.5831 17.8354H64.7085V8.90234C64.7085 7.95308 63.9383 7.18359 62.9882 7.18359Z" fill="#9AC9E3"/>
<path d="M64.7084 22.9917H46.583V72.1921H64.7084V22.9917ZM58.2234 58.5456C58.2234 59.9694 57.0681 61.1237 55.6431 61.1237C54.218 61.1237 53.0627 59.9694 53.0627 58.5456V36.6381C53.0627 35.2142 54.218 34.0599 55.6431 34.0599C57.0681 34.0599 58.2234 35.2142 58.2234 36.6381V58.5456Z" fill="#9AC9E3"/>
<path d="M41.4169 31.1079H23.2915V74.0203H41.4169V31.1079ZM34.9372 62.2508C34.9372 63.6746 33.7819 64.8289 32.3569 64.8289C30.9319 64.8289 29.7765 63.6746 29.7765 62.2508V42.8774C29.7765 41.4536 30.9319 40.2993 32.3569 40.2993C33.7819 40.2993 34.9372 41.4536 34.9372 42.8774V62.2508Z" fill="#9AC9E3"/>
<path d="M86.2798 0.0385742H71.5897C70.6396 0.0385742 69.8694 0.808059 69.8694 1.75732V12.0042H88.0001V1.75732C88.0001 0.808059 87.23 0.0385742 86.2798 0.0385742Z" fill="#9AC9E3"/>
<path d="M71.5897 88.0003H86.2798C87.23 88.0003 88.0001 87.2308 88.0001 86.2815V76.0347H69.8694V86.2815C69.8694 87.2308 70.6396 88.0003 71.5897 88.0003Z" fill="#9AC9E3"/>
<path d="M88.0001 17.1606H69.8694V70.8785H88.0001V17.1606ZM81.5153 55.8837C81.5153 57.3076 80.3599 58.4619 78.9349 58.4619C77.5099 58.4619 76.3546 57.3076 76.3546 55.8837V32.1554C76.3546 30.7316 77.5099 29.5772 78.9349 29.5772C80.3599 29.5772 81.5153 30.7316 81.5153 32.1554V55.8837Z" fill="#9AC9E3"/>
<path d="M0 70.8711H18.1308V17.1289H0V70.8711ZM6.48484 32.1308C6.48484 30.707 7.64019 29.5527 9.0652 29.5527C10.4902 29.5527 11.6456 30.707 11.6456 32.1308V55.869C11.6456 57.2928 10.4902 58.4471 9.0652 58.4471C7.64019 58.4471 6.48484 57.2928 6.48484 55.869V32.1308Z" fill="#9AC9E3"/>
<path d="M16.4105 0H1.7203C0.770172 0 0 0.769484 0 1.71875V11.9726H18.1308V1.71875C18.1308 0.769484 17.3606 0 16.4105 0V0Z" fill="#9AC9E3"/>
<path d="M1.7203 88H16.4105C17.3606 88 18.1308 87.2305 18.1308 86.2812V76.0273H0V86.2812C0 87.2305 0.770172 88 1.7203 88Z" fill="#9AC9E3"/>
<path d="M25.0118 87.9998H39.6966C40.6468 87.9998 41.4169 87.2303 41.4169 86.2811V79.1768H23.2915V86.2811C23.2915 87.2303 24.0617 87.9998 25.0118 87.9998Z" fill="#9AC9E3"/>
<path d="M39.6966 17.1289H25.0118C24.0617 17.1289 23.2915 17.8984 23.2915 18.8477V25.9519H41.4169V18.8477C41.4169 17.8984 40.6468 17.1289 39.6966 17.1289Z" fill="#9AC9E3"/>
</g>
<defs>
<clipPath id="clip0">
<rect width="88" height="88" fill="white"/>
</clipPath>
</defs>
</svg>
