<svg width="48" height="51" viewBox="0 0 48 51" fill="none" xmlns="http://www.w3.org/2000/svg">
<path fill-rule="evenodd" clip-rule="evenodd" d="M42.4387 38.3184H10.054C8.1717 38.3184 6.63182 39.81 6.52231 41.6831C6.52356 41.7981 6.52542 41.8845 6.52666 41.9401C6.52704 41.9613 6.52491 41.9815 6.52276 42.0018C6.5214 42.0146 6.52004 42.0276 6.51931 42.0407C6.5957 43.9439 8.14997 45.4702 10.054 45.4702H15.3488L17.9452 47.2355C18.6239 47.697 19.5156 47.697 20.1943 47.2355L22.2817 45.8163C22.6134 45.5908 23.0051 45.4702 23.4062 45.4702H41.494V41.9734C41.494 41.2755 42.0557 40.7084 42.7469 40.7084C43.4382 40.7084 43.9999 41.2754 43.9999 41.9734V46.7351C43.9999 47.4337 43.4383 48.0001 42.7469 48.0001L23.4114 47.9816C23.0071 47.9812 22.6122 48.1033 22.2787 48.3319L20.2005 49.7563C19.519 50.2233 18.6205 50.2233 17.9391 49.7563L15.3488 47.981L9.86446 48.0001C9.79873 48.0001 9.73663 47.9908 9.67328 47.981C6.51579 47.7808 4.00554 45.131 4.00554 41.8942C4.00554 41.8514 4.0085 41.8094 4.01147 41.7674C4.01364 41.7367 4.01581 41.7059 4.01682 41.6749C3.97862 37.9187 4.01682 9.3466 4.02117 6.23713C4.01972 6.22261 4.01778 6.20818 4.01583 6.19371C4.01193 6.16475 4.00802 6.13567 4.00802 6.10556C4.00802 2.73943 6.72074 0 10.0557 0H12.0579H42.4412H42.747C43.4384 0 44.0001 0.566717 44 1.265V37.0182C44 37.7167 43.4384 38.2831 42.747 38.2831C42.7397 38.2831 42.7336 38.2819 42.7262 38.2819C42.6339 38.3042 42.5379 38.3184 42.4387 38.3184ZM16.6204 21.2154C16.273 20.9403 15.7712 20.9216 15.4 21.2C14.9582 21.5314 14.8686 22.1582 15.2 22.6L16 22C15.2 22.6 15.2002 22.6003 15.2005 22.6007L15.2011 22.6014L15.2024 22.6032L15.206 22.6079L15.2165 22.6216C15.225 22.6327 15.2364 22.6474 15.2509 22.6656C15.2797 22.7021 15.3204 22.7524 15.3727 22.8147C15.4772 22.9393 15.6286 23.1121 15.8249 23.3169C16.2166 23.7257 16.7922 24.2672 17.5368 24.8087C19.0223 25.8891 21.2245 27 24 27C26.7755 27 28.9777 25.8891 30.4632 24.8087C31.2078 24.2672 31.7833 23.7257 32.1751 23.3169C32.3714 23.1121 32.5228 22.9393 32.6273 22.8147C32.6796 22.7524 32.7203 22.7021 32.7491 22.6656C32.7636 22.6474 32.775 22.6327 32.7835 22.6216L32.794 22.6079L32.7976 22.6032L32.7989 22.6014L32.7995 22.6007C32.7997 22.6003 32.8 22.6 32.0353 22.0265L32.8 22.6C33.1314 22.1582 33.0418 21.5314 32.6 21.2C32.1584 20.8688 31.5319 20.9581 31.2004 21.3994L31.2 21.4L31.199 21.4013L31.181 21.4242C31.1635 21.4464 31.1348 21.4819 31.0954 21.529C31.0163 21.6232 30.8942 21.7629 30.7311 21.9331C30.4041 22.2743 29.9172 22.7328 29.2868 23.1913C28.0223 24.1109 26.2245 25 24 25C21.7755 25 19.9777 24.1109 18.7132 23.1913C18.0828 22.7328 17.5958 22.2743 17.2689 21.9331C17.1058 21.7629 16.9837 21.6232 16.9046 21.529C16.8652 21.4819 16.8365 21.4464 16.819 21.4242L16.801 21.4013L16.8 21.4L16 22C16.8 21.4 16.7998 21.3997 16.7996 21.3994L16.7992 21.3989L16.7987 21.3982L16.7985 21.398C16.7459 21.3282 16.6859 21.2672 16.6204 21.2154Z" fill="#4B9DB9"/>
</svg>
