<svg width="20" height="20" viewBox="0 0 20 20" fill="none" xmlns="http://www.w3.org/2000/svg">
<path d="M17.5947 4.58312H14.7032V4.28607C14.7032 2.95893 13.6261 1.88184 12.299 1.88184H7.70049C6.37282 1.88184 5.29626 2.95893 5.29626 4.28607V4.58312H2.40423C1.07656 4.58312 0 5.65969 0 6.98736V15.7142C0 17.0413 1.07656 18.1184 2.40423 18.1184H17.5958C18.9234 18.1184 20 17.0413 20 15.7142V6.98736C19.9989 5.65915 18.9224 4.58312 17.5947 4.58312ZM9.99893 15.6244C7.49426 15.6244 5.45761 13.5878 5.45761 11.0831C5.45761 8.57896 7.49426 6.54177 9.99893 6.54177C12.5036 6.54177 14.5403 8.57842 14.5403 11.0831C14.5403 13.5878 12.5031 15.6244 9.99893 15.6244ZM12.4032 11.0831C12.4032 12.4076 11.3239 13.4873 9.99893 13.4873C8.67393 13.4873 7.5947 12.4076 7.5947 11.0831C7.5947 9.7581 8.67393 8.67887 9.99893 8.67887C11.3239 8.67887 12.4032 9.7581 12.4032 11.0831Z" fill="#4B9DB9"/>
</svg>
