<svg width="32" height="32" viewBox="0 0 32 32" fill="none" xmlns="http://www.w3.org/2000/svg">
<g clip-path="url(#clip0)">
<path d="M16.0625 -0.000732422C7.27437 -0.000732422 0 7.14864 0 15.9368C0 24.7249 7.27437 31.9993 16.0625 31.9993C24.8506 31.9993 32 24.7249 32 15.9368C32 7.14864 24.8506 -0.000732422 16.0625 -0.000732422ZM25.8256 11.2493L15.3994 21.7424C14.665 22.4768 13.3538 22.4736 12.6219 21.7424L6.65625 15.7755C5.92313 15.0424 5.92313 13.8574 6.65625 13.1243C7.35125 12.4299 8.61438 12.4299 9.30875 13.1243L14.0737 17.7643L23.1744 8.59802C23.8681 7.90177 25.1281 7.89989 25.8263 8.59802C26.5456 9.31739 26.5694 10.5055 25.8256 11.2493Z" fill="#4B9DB9"/>
</g>
<defs>
<clipPath id="clip0">
<rect width="32" height="32" fill="white" transform="translate(0 -0.000732422)"/>
</clipPath>
</defs>
</svg>
