<svg width="32" height="32" viewBox="0 0 32 32" fill="none" xmlns="http://www.w3.org/2000/svg">
<g clip-path="url(#clip0)">
<path d="M18.0531 22.1834C17.4836 22.5327 16.7542 22.7251 15.9993 22.7251C15.2443 22.7251 14.5149 22.5328 13.9454 22.1834L4.6469 16.4806C4.6469 16.4806 3.80762 15.9661 3.80762 17.1315C3.80762 18.4549 3.80762 22.4252 3.80762 22.4252C3.80762 22.4781 3.80762 22.7438 3.80762 22.8262C3.80762 25.8261 9.26591 29.0601 15.999 29.0601C22.7321 29.0601 28.1904 25.8262 28.1904 22.8262C28.1904 22.7438 28.1904 22.4781 28.1904 22.4252C28.1904 22.4252 28.1904 18.2142 28.1904 16.8105C28.1904 15.875 27.5937 16.3321 27.5937 16.3321L18.0531 22.1834Z" fill="#4B9DB9"/>
<path d="M31.4641 11.9443C32.1786 11.5061 32.1786 10.789 31.4641 10.3508L17.299 3.26735C16.5845 2.82918 15.4154 2.82918 14.7009 3.26735L0.53586 10.3508C-0.17862 10.789 -0.17862 11.506 0.53586 11.9443L14.7009 20.6318C15.4154 21.07 16.5845 21.07 17.299 20.6318" fill="#4B9DB9"/>
<path d="M30.8784 24.8213C30.8784 22.4227 30.8784 15.2266 30.8784 15.2266C30.8784 15.2266 30.885 14.7722 30.6154 14.9222C30.3991 15.0426 29.8688 15.3382 29.682 15.5007C29.4663 15.6881 29.5149 16.1089 29.5149 16.1089C29.5149 16.1089 29.5149 22.6432 29.5149 24.8213C29.5149 24.945 29.4087 25.004 29.358 25.0339C28.8683 25.3217 28.5391 25.8531 28.5391 26.4623C28.5391 27.3778 29.2811 28.1199 30.1967 28.1199C31.1122 28.1199 31.8542 27.3778 31.8542 26.4623C31.8542 25.8508 31.5226 25.3177 31.0298 25.0306C30.9808 25.002 30.8784 24.9449 30.8784 24.8213Z" fill="#4B9DB9"/>
</g>
<defs>
<clipPath id="clip0">
<rect width="32" height="32" fill="white" transform="translate(0 -0.000732422)"/>
</clipPath>
</defs>
</svg>
