<svg width="32" height="26" viewBox="0 0 32 26" fill="none" xmlns="http://www.w3.org/2000/svg">
<path d="M16.0096 22.9754C16.0096 23.5391 15.6839 24.0513 15.1742 24.2903C14.9771 24.3835 14.7659 24.4286 14.5561 24.4286C14.2239 24.4286 13.8947 24.3144 13.6288 24.0939L5.68439 17.5108H1.45317C0.650745 17.5115 0 16.8604 0 16.058V10.2683C0 9.46558 0.650745 8.81484 1.45317 8.81484H5.68473L13.6292 2.23172C14.0632 1.87195 14.6651 1.79525 15.1745 2.03602C15.6839 2.27506 16.01 2.78754 16.01 3.35092L16.0096 22.9754ZM21.5943 20.7047C21.5588 20.7071 21.5248 20.7085 21.4897 20.7085C21.1059 20.7085 20.7358 20.5568 20.4623 20.283L20.268 20.088C19.7583 19.5793 19.6984 18.7734 20.1277 18.1949C21.2159 16.7276 21.7903 14.9883 21.7903 13.1637C21.7903 11.2011 21.1382 9.36033 19.9041 7.8401C19.4343 7.26227 19.4776 6.42304 20.0042 5.8968L20.1982 5.70247C20.4885 5.41218 20.8775 5.25397 21.2985 5.27908C21.7085 5.29971 22.0913 5.49267 22.3513 5.81047C24.0631 7.9051 24.9673 10.4482 24.9673 13.164C24.9673 15.6934 24.1677 18.101 22.6543 20.1255C22.4015 20.4629 22.0149 20.6748 21.5943 20.7047ZM27.6023 25.1956C27.3395 25.5062 26.9595 25.6926 26.5526 25.7098C26.5326 25.7105 26.5124 25.7112 26.4917 25.7112C26.1068 25.7112 25.7374 25.5591 25.464 25.2857L25.2731 25.0948C24.7397 24.5617 24.7035 23.7091 25.1885 23.1319C27.5321 20.3446 28.8233 16.8047 28.8233 13.1637C28.8233 9.3765 27.441 5.73068 24.9319 2.89794C24.4232 2.32287 24.449 1.45234 24.9904 0.908906L25.1809 0.718016C25.4637 0.433917 25.831 0.277422 26.2523 0.290836C26.6523 0.302186 27.0307 0.478974 27.2965 0.778207C30.3295 4.1929 32 8.59196 32 13.1637C32.0007 17.5624 30.4388 21.8356 27.6023 25.1956Z" fill="white"/>
</svg>
