<svg width="32" height="32" viewBox="0 0 32 32" fill="none" xmlns="http://www.w3.org/2000/svg">
<path d="M27.3143 4.68536C21.0654 -1.56139 10.935 -1.56348 4.68614 4.68536C-1.5627 10.9328 -1.5627 21.0632 4.68614 27.3128C10.9336 33.5616 21.0654 33.5616 27.3143 27.3128C33.561 21.0639 33.561 10.9335 27.3143 4.68536ZM14.0056 22.1452C14.0056 23.1644 13.1793 23.9893 12.1609 23.9893C11.1424 23.9893 10.3168 23.1644 10.3168 22.1452V9.85431C10.3168 8.83658 11.1424 8.01025 12.1609 8.01025C13.1793 8.01025 14.0056 8.83658 14.0056 9.85431V22.1452ZM21.6822 22.1452C21.6822 23.1644 20.8559 23.9893 19.8382 23.9893C18.8204 23.9893 17.9941 23.1644 17.9941 22.1452V9.85431C17.9941 8.83658 18.8204 8.01025 19.8382 8.01025C20.8559 8.01025 21.6822 8.83658 21.6822 9.85431V22.1452Z" fill="white"/>
</svg>
