<svg width="13" height="16" viewBox="0 0 13 16" fill="none" xmlns="http://www.w3.org/2000/svg">
<path opacity="0.8" d="M4.848 2.408C4.848 2.888 4.776 3.488 4.632 4.208C4.488 4.928 4.32 5.696 4.128 6.512C3.936 7.28 3.768 8.072 3.624 8.888C3.48 9.704 3.408 10.448 3.408 11.12C3.408 12.032 3.36 12.92 3.264 13.784C3.216 14.648 3.024 15.08 2.688 15.08C2.208 15.08 1.824 14.912 1.536 14.576C1.248 14.192 1.008 13.76 0.816 13.28C0.672 12.752 0.552 12.2 0.456 11.624C0.408 11.048 0.384 10.544 0.384 10.112C0.384 9.584 0.408 9.152 0.456 8.816C0.504 8.48 0.528 8.264 0.528 8.168C0.528 7.88 0.6 7.352 0.744 6.584C0.936 5.768 1.152 4.928 1.392 4.064C1.68 3.2 1.992 2.432 2.328 1.76C2.664 1.088 3.024 0.751999 3.408 0.751999C3.936 0.751999 4.296 0.943999 4.488 1.328C4.728 1.664 4.848 2.024 4.848 2.408ZM12.192 3.344C12.144 3.344 12.024 3.608 11.832 4.136C11.688 4.616 11.496 5.192 11.256 5.864C11.064 6.536 10.872 7.208 10.68 7.88C10.536 8.552 10.464 9.032 10.464 9.32C10.464 9.608 10.512 9.992 10.608 10.472C10.752 10.904 11.016 11.504 11.4 12.272C11.208 12.464 10.992 12.68 10.752 12.92C10.512 13.16 10.296 13.28 10.104 13.28C9.72 13.28 9.36 13.136 9.024 12.848C8.736 12.512 8.472 12.128 8.232 11.696C7.992 11.216 7.8 10.736 7.656 10.256C7.512 9.776 7.44 9.368 7.44 9.032C7.44 8.696 7.464 8.264 7.512 7.736C7.608 7.16 7.704 6.608 7.8 6.08C7.896 5.504 8.016 5 8.16 4.568C8.352 4.136 8.52 3.848 8.664 3.704C9.048 3.368 9.432 3.08 9.816 2.84C10.2 2.552 10.656 2.408 11.184 2.408C11.424 2.408 11.664 2.456 11.904 2.552C12.144 2.6 12.264 2.768 12.264 3.056C12.264 3.104 12.24 3.152 12.192 3.2C12.192 3.248 12.192 3.296 12.192 3.344Z" fill="#4B9DB9"/>
</svg>
