<svg width="16" height="16" viewBox="0 0 16 16" fill="none" xmlns="http://www.w3.org/2000/svg">
<path d="M7.99984 0C4.77443 0 2.15039 2.67119 2.15039 5.95454C2.15039 7.79111 3.07927 10.0203 4.9113 12.5801C6.25199 14.4535 7.57312 15.7895 7.62871 15.8455C7.7309 15.9484 7.86534 16 7.99993 16C8.13062 16 8.2614 15.9513 8.36278 15.8537C8.4185 15.8 9.74297 14.518 11.0862 12.6705C12.9197 10.1486 13.8494 7.88905 13.8494 5.95451C13.8493 2.67119 11.2252 0 7.99984 0ZM7.99984 8.5252C6.42296 8.5252 5.14012 7.24233 5.14012 5.66548C5.14012 4.08863 6.42299 2.80576 7.99984 2.80576C9.57669 2.80576 10.8596 4.08863 10.8596 5.66548C10.8596 7.24233 9.57665 8.5252 7.99984 8.5252Z" fill="#4B9DB9"/>
</svg>