<?xml version="1.0" standalone="no"?>
<!DOCTYPE svg PUBLIC "-//W3C//DTD SVG 1.0//EN" "http://www.w3.org/TR/2001/REC-SVG-20010904/DTD/svg10.dtd">
<svg xmlns="http://www.w3.org/2000/svg" xmlns:xlink="http://www.w3.org/1999/xlink" id="body_1" width="32" height="32">

<g transform="matrix(0.0625 0 0 0.0625 0 0)">
	<g transform="matrix(1.167529 0 0 1.167529 0 6.636634E-14)">
	</g>
    <path transform="matrix(1.167529 0 0 1.167529 0 6.636634E-14)"  d="M409.133 109.203C 389.525 75.61101 362.928 49.014 329.335 29.40701C 295.736 9.801 259.058 0 219.273 0C 179.492 0 142.807 9.801 109.21 29.407C 75.61499 49.011 49.01799 75.608 29.40999 109.203C 9.801 142.8 0 179.489 0 219.267C 0 259.045 9.804 295.73 29.407 329.329C 49.014 362.914 75.611 389.518 109.206 409.127C 142.803 428.732 179.489 438.534 219.269 438.534C 259.049 438.534 295.739 428.732 329.334 409.127C 362.927 389.525 389.523 362.921 409.129 329.329C 428.732 295.73 438.532 259.042 438.532 219.267C 438.533 179.489 428.732 142.795 409.133 109.203zM328.904 234.966L173.588 326.33C 170.732 328.041 167.686 328.897 164.452 328.897C 161.407 328.897 158.362 328.133 155.317 326.611C 149.227 322.9969 146.181 317.672 146.181 310.626L146.181 310.626L146.181 127.907C 146.181 120.866 149.227 115.536 155.317 111.92C 161.597 108.493 167.686 108.587 173.588 112.204L173.588 112.204L328.904 203.564C 334.992 206.988 338.038 212.227 338.038 219.267C 338.038 226.308 334.992 231.537 328.904 234.966z" stroke="none" fill="#FFFFFF" fill-rule="nonzero" />
</g>
</svg>