<svg width="32" height="32" viewBox="0 0 32 32" fill="none" xmlns="http://www.w3.org/2000/svg">
<g clip-path="url(#clip0)">
<path d="M10.9795 6.39059C11.4972 6.39059 11.917 5.97084 11.917 5.45309V1.43646C11.8674 0.192586 10.0911 0.193523 10.042 1.43646V5.45309C10.042 5.97084 10.4617 6.39059 10.9795 6.39059Z" fill="#4B9DB9"/>
<path d="M0 28.5489C0 30.2012 1.346 31.4947 2.94581 31.4947H29.0541C30.6843 31.4947 31.9999 30.1757 31.9999 28.5489V12.2822H0L0 28.5489Z" fill="#4B9DB9"/>
<path d="M15.9997 25.9394C17.2929 25.3589 21.0872 22.2448 21.0872 19.378C21.0872 18.2338 20.1563 17.303 19.0122 17.303C17.6459 17.303 17.0376 18.4816 16.9092 19.0029C16.8043 19.4229 16.4264 19.7234 15.9942 19.7199C15.5625 19.7166 15.1908 19.426 15.091 19.0064C14.991 18.6516 14.4742 17.303 12.9871 17.303C11.843 17.303 10.9121 18.2339 10.9121 19.378C10.9122 22.2471 14.707 25.3592 15.9997 25.9394Z" fill="#4B9DB9"/>
<path d="M32 5.45314C32 3.82295 30.6812 2.50732 29.0542 2.50732H23.8334V5.45314C23.6784 9.1852 18.3619 9.18232 18.2084 5.45314V2.50732H13.7917V5.45314C13.6368 9.1852 8.32025 9.18232 8.16669 5.45314V2.50732H2.94581C1.34237 2.50732 0 3.80451 0 5.45314V10.4073H32V5.45314Z" fill="#4B9DB9"/>
<path d="M21.0205 6.39059C21.5383 6.39059 21.958 5.97084 21.958 5.45309V1.43646C21.9084 0.192586 20.1321 0.193523 20.083 1.43646V5.45309C20.083 5.97084 20.5028 6.39059 21.0205 6.39059Z" fill="#4B9DB9"/>
</g>
<defs>
<clipPath id="clip0">
<rect width="32" height="32" fill="white" transform="translate(0 -0.000732422)"/>
</clipPath>
</defs>
</svg>
