<svg width="88" height="88" viewBox="0 0 88 88" fill="none" xmlns="http://www.w3.org/2000/svg">
<path d="M23.375 59.4688C21.9526 59.4688 20.7969 60.6244 20.7969 62.0469V69.7812H36.2656V62.0469C36.2656 60.6244 35.1099 59.4688 33.6875 59.4688H23.375Z" fill="#9AC9E3"/>
<path d="M28.5312 49.1562C29.9551 49.1562 31.1094 48.002 31.1094 46.5781C31.1094 45.1543 29.9551 44 28.5312 44C27.1074 44 25.9531 45.1543 25.9531 46.5781C25.9531 48.002 27.1074 49.1562 28.5312 49.1562Z" fill="#9AC9E3"/>
<path d="M15.6406 62.0469C15.6406 57.782 19.1101 54.3125 23.375 54.3125H28.5312C24.2663 54.3125 20.7969 50.843 20.7969 46.5781C20.7969 42.3132 24.2663 38.8438 28.5312 38.8438C32.7962 38.8438 36.2656 42.3132 36.2656 46.5781C36.2656 50.843 32.7962 54.3125 28.5312 54.3125H33.6875C37.9524 54.3125 41.4219 57.782 41.4219 62.0469V69.7812H82.8438V44H49.1562C44.8913 44 41.4219 40.5305 41.4219 36.2656V23.375H7.73438C6.31056 23.375 5.15625 24.5293 5.15625 25.9531V69.7812H15.6406V62.0469ZM49.1562 49.1562H69.7812C71.2063 49.1562 72.3594 50.3094 72.3594 51.7344C72.3594 53.1594 71.2063 54.3125 69.7812 54.3125H49.1562C47.7312 54.3125 46.5781 53.1594 46.5781 51.7344C46.5781 50.3094 47.7312 49.1562 49.1562 49.1562ZM49.1562 59.4688H69.7812C71.2063 59.4688 72.3594 60.6219 72.3594 62.0469C72.3594 63.4719 71.2063 64.625 69.7812 64.625H49.1562C47.7312 64.625 46.5781 63.4719 46.5781 62.0469C46.5781 60.6219 47.7312 59.4688 49.1562 59.4688Z" fill="#9AC9E3"/>
<path d="M64.625 23.9769L69.9273 20.797L64.625 17.6172V23.9769Z" fill="#9AC9E3"/>
<path d="M85.4219 2.75H49.1562C47.7312 2.75 46.5781 3.90311 46.5781 5.32812V36.2656C46.5781 37.6906 47.7312 38.8438 49.1562 38.8438H85.4219C86.8469 38.8438 88 37.6906 88 36.2656V5.32812C88 3.90311 86.8469 2.75 85.4219 2.75ZM76.2644 23.0074L63.3738 30.7417C62.5754 31.2197 61.583 31.2324 60.7755 30.7744C59.9672 30.3163 59.4688 29.4602 59.4688 28.5312V13.0625C59.4688 12.1335 59.9672 11.2774 60.7755 10.8192C61.5862 10.361 62.5757 10.3735 63.3738 10.8518L76.2644 18.5862C77.0399 19.052 77.5156 19.8904 77.5156 20.7967C77.5156 21.703 77.0397 22.5416 76.2644 23.0074Z" fill="#9AC9E3"/>
<path d="M85.4219 74.9375H2.57812C1.15431 74.9375 0 76.0918 0 77.5156V80.0938C0 82.9415 2.30845 85.25 5.15625 85.25H82.8438C85.6915 85.25 88 82.9415 88 80.0938V77.5156C88 76.0918 86.8457 74.9375 85.4219 74.9375Z" fill="#9AC9E3"/>
</svg>
