<svg width="88" height="88" viewBox="0 0 88 88" fill="none" xmlns="http://www.w3.org/2000/svg">
<path d="M41.4219 23.0352V34.0271L49.6652 28.5311L41.4219 23.0352Z" fill="#9AC9E3"/>
<path d="M85.4219 10.3125C86.8466 10.3125 88 9.15906 88 7.73438C88 6.30969 86.8466 5.15625 85.4219 5.15625H46.5781V2.57812C46.5781 1.15344 45.4247 0 44 0C42.5753 0 41.4219 1.15344 41.4219 2.57812V5.15625H2.57812C1.15344 5.15625 0 6.30969 0 7.73438C0 9.15906 1.15344 10.3125 2.57812 10.3125H5.15625V57.0625H2.57812C1.15344 57.0625 0 58.2159 0 59.6406C0 61.0653 1.15344 62.2188 2.57812 62.2188H38.6343L22.1363 82.8438H18.2188C16.7941 82.8438 15.6406 83.9972 15.6406 85.4219C15.6406 86.8466 16.7941 88 18.2188 88H23.375C24.1578 88 24.8984 87.6448 25.3892 87.0332L41.4219 66.9903V85.4219C41.4219 86.8466 42.5753 88 44 88C45.4247 88 46.5781 86.8466 46.5781 85.4219V66.9903L62.6108 87.0332C63.1016 87.6448 63.8422 88 64.625 88H69.7812C71.2059 88 72.3594 86.8466 72.3594 85.4219C72.3594 83.9972 71.2059 82.8438 69.7812 82.8438H65.8637L49.3657 62.2188H85.4219C86.8466 62.2188 88 61.0653 88 59.6406C88 58.2159 86.8466 57.0625 85.4219 57.0625H82.8438V10.3125H85.4219ZM36.2656 18.2188C36.2656 17.2674 36.7893 16.3932 37.6279 15.9454C38.4637 15.4996 39.4856 15.5473 40.2738 16.0737L55.7426 26.3862C56.4603 26.8642 56.8906 27.6699 56.8906 28.5312C56.8906 29.392 56.4603 30.1976 55.7426 30.6763L40.2738 40.9888C39.4749 41.5212 38.4543 41.5602 37.6279 41.1171C36.7893 40.6693 36.2656 39.7951 36.2656 38.8438V18.2188ZM18.2188 51.9062C16.7947 51.9062 15.6406 50.7521 15.6406 49.3281C15.6406 47.9041 16.7947 46.75 18.2188 46.75C19.6428 46.75 20.7969 47.9041 20.7969 49.3281C20.7969 50.7521 19.6428 51.9062 18.2188 51.9062ZM69.9531 51.9062H28.5312C27.1066 51.9062 25.9531 50.7528 25.9531 49.3281C25.9531 47.9034 27.1066 46.75 28.5312 46.75H69.9531C71.3778 46.75 72.5312 47.9034 72.5312 49.3281C72.5312 50.7528 71.3778 51.9062 69.9531 51.9062Z" fill="#9AC9E3"/>
</svg>
